<?xml version="1.0" encoding="utf-8"?>
<!-- Generator: Adobe Illustrator 21.0.2, SVG Export Plug-In . SVG Version: 6.00 Build 0)  -->
<svg version="1.1" id="Ebene_1" xmlns="http://www.w3.org/2000/svg" xmlns:xlink="http://www.w3.org/1999/xlink" x="0px" y="0px"
	 viewBox="0 0 36.9 45.4" style="enable-background:new 0 0 36.9 45.4;" xml:space="preserve">
<style type="text/css">
	.st0{display:none;}
	.st1{display:inline;}
	.st2{fill:#51BCBE;}
	.st3{display:inline;fill:#51BCBE;}
</style>
<g id="lfp" class="st0">
	<g class="st1">
		<g>
			<path class="st2" d="M18.4-12.2c-19.3,0-35,15.7-35,35s15.7,35,35,35s35-15.7,35-35S37.7-12.2,18.4-12.2z M18.4,42.7
				c-7,0-12.7-5.7-12.7-12.7c0-0.1,0-0.2,0-0.3v-0.1c0-6.1,2.2-9.4,4.6-12.9c1-1.4,2-2.9,2.9-4.7c2.4-4.6,4-11.6,4-11.7
				c0.1-0.5,0.5-0.8,1-0.8l0,0l0,0l0,0l0,0c0.5,0,0.9,0.3,1,0.8c0,0.1,1.7,7.1,4,11.7c0.9,1.8,1.9,3.3,2.9,4.7
				c2.1,3.2,4.2,6.2,4.5,11.3c0.1,0.6,0.2,1.3,0.2,2C31.1,37,25.4,42.7,18.4,42.7z"/>
		</g>
		<g>
			<path class="st2" d="M22.9,21.4c-0.4-0.7-0.8-1.4-1.2-2.1c-0.2-0.4-0.4-0.9-0.6-1.4c0-0.1-0.1-0.2-0.2-0.2c0,0.1-0.1,0.2-0.1,0.3
				c0,0.3,0.1,0.5,0.1,0.8c0,1.4-0.1,2.7-0.3,4.1c-0.1,0.5-0.2,0.9-0.2,1.4c0,0.4,0.1,0.8,0.1,1.2c0.1,1.1,0.6,2,1.4,2.8
				c0.3,0.3,0.7,0.5,1.2,0.5s0.8-0.1,1.2-0.5c0.6-0.6,0.8-1.4,0.8-2.2c0-1.2-0.5-2.4-1.2-3.4C23.5,22.2,23.2,21.8,22.9,21.4z"/>
		</g>
	</g>
</g>
<g id="embroidery" class="st0">
	<g class="st1">
		<g>
			<path class="st2" d="M19,9.6v4.2c-0.8,0.3-1.5,0.6-2.3,1v3.5c0,1.1,0.9,2,2,2s2-0.9,2-2V6c0-1.1-0.9-2-2-2s-2,0.9-2,2v4.7
				c0.6-0.3,1.2-0.5,1.8-0.8C18.7,9.8,18.9,9.7,19,9.6z"/>
		</g>
		<g>
			<path class="st2" d="M18.4-12.2c-19.3,0-35,15.7-35,35s15.7,35,35,35s35-15.7,35-35S37.7-12.2,18.4-12.2z M22.8,5.6l-0.7,26.1
				c-0.3,6.8-1.7,16.1-3.1,16.1c-0.1,0-0.2,0-0.2-0.1c-0.1,0-0.2,0.1-0.2,0.1c-1.4,0-2.9-9.3-3.1-16.1l-0.4-16.2
				c-2.6,1-5.3,1.7-8.2,1.7c-0.1,0-0.3,0-0.4,0c-2.5,0-5.4-0.6-7.9-1.6c-3.4-1.4-6.3-3.7-8.2-6.5C-10.2,8.2-10,7-9.1,6.4
				S-7,6-6.4,6.9c3.5,5.3,10,6.5,13.2,6.4c2.8-0.1,5.5-0.9,8.2-2l-0.2-5.8c0-0.1,0-0.3,0-0.4c0-2.2,1.8-3.8,4.1-3.8
				c2.2,0,4.1,1.5,4.1,3.8C22.9,5.3,22.8,5.5,22.8,5.6z M43.5,15.3c-2.7-3.2-8.1-5.5-11.1-5.5c-2.8,0-5.5,0.6-8.1,1.6v-4
				C26.9,6.6,29.6,6,32.5,6c4,0.1,10.4,2.7,14,6.9c0.7,0.8,0.6,2-0.2,2.7C45.4,16.2,44.2,16.1,43.5,15.3z"/>
		</g>
	</g>
</g>
<g id="textile" class="st0">
	<g class="st1">
		<g>
			<path class="st2" d="M18.4-11.7c-19.3,0-35,15.7-35,35s15.7,35,35,35s35-15.7,35-35S37.7-11.7,18.4-11.7z M36,18.5L32,17v26.1
				c0,0.5-0.4,1-1,1h-5.1h-15H5.8c-0.5,0-1-0.4-1-1V17l-4,1.5c-0.5,0.2-1,0-1.2-0.5l-4-8.3c-0.2-0.5,0-1.1,0.5-1.3L9.9,2.3l0,0h1h15
				h1.5l0,0l13.3,6.1c0.5,0.2,0.7,0.8,0.5,1.3l-4,8.3C37,18.5,36.5,18.7,36,18.5z"/>
		</g>
	</g>
</g>
<g id="design" class="st0">
	<g class="st1">
		<path class="st2" d="M18.4-11.7c-19.3,0-35,15.7-35,35s15.7,35,35,35s35-15.7,35-35S37.7-11.7,18.4-11.7z M8.7,1.4
			c0.9,0,1.9,0,2.8,0c1.7,0,3.3,0,5,0c1.8,0,3.6,0,5.4,0c1.7,0,3.4,0,5.1,0c0.4,0,0.8,0,1.2,0c0,0,0.1,0,0.2,0
			c-0.1,0.2-0.2,0.4-0.3,0.6c-0.3,0.6-0.5,1.3-0.8,1.9s-0.5,1.2-0.8,1.8c0,0.1-0.1,0.2-0.1,0.3c0,0.1-0.1,0.1-0.2,0.1
			c-0.2,0-0.4,0-0.6,0c-1.9,0-3.7,0-5.6,0c-1.8,0-3.7,0-5.5,0c-1.3,0-2.6,0-3.9,0c-0.2,0-0.2,0-0.3-0.2C10,5.2,9.7,4.4,9.4,3.7
			C9.1,2.9,8.8,2.2,8.5,1.4V1.3C8.6,1.4,8.6,1.4,8.7,1.4z M30.6,26.8c-0.2,0.1-0.4,0.3-0.6,0.4c-0.7,0.6-1.4,1.2-1.9,1.8
			c-0.3,0.4-0.7,0.8-1,1.2s-0.6,0.7-0.8,1.1c-0.2,0.3-0.4,0.6-0.6,1c-0.2,0.4-0.5,0.7-0.7,1.1c-0.3,0.5-0.5,0.9-0.7,1.4
			c-0.3,0.6-0.6,1.2-0.9,1.9c-0.3,0.6-0.5,1.3-0.7,1.9c-0.4,1.2-0.7,2.4-1,3.7c-0.3,1.6-0.5,3.1-0.6,4.7c0,0.6,0,1.2-0.1,1.9V49
			c0,0.1,0,0.1-0.1,0.1h-0.1c-0.4,0-0.8,0-1.2,0c-0.1,0-0.1,0-0.2,0c0-0.1,0-0.1,0-0.2c0-6,0-12,0-18c0-2.6,0-5.2,0-7.8V23
			c0-0.1,0-0.1,0.1-0.2c0.4-0.1,0.8-0.3,1.1-0.6c0.5-0.4,0.8-1,0.9-1.6c0.2-0.7,0.1-1.4-0.1-2.1c-0.2-0.5-0.6-1-1.1-1.4
			c-0.6-0.5-1.4-0.7-2.1-0.6c-0.9,0.1-1.6,0.4-2.2,1.1c-0.8,0.9-1.1,2.4-0.5,3.6c0.2,0.5,0.6,0.9,1,1.2c0.2,0.2,0.5,0.3,0.7,0.4
			c0.1,0,0.1,0.1,0.1,0.2v0.1c0,8.6,0,17.3,0,25.9c0,0.1,0,0.1,0,0.2c-0.1,0-0.1,0-0.2,0c-0.4,0-0.8,0-1.2,0c-0.2,0-0.2,0-0.2-0.2
			c0-0.9,0-1.8-0.1-2.6c-0.1-2-0.5-3.9-0.9-5.8c-0.3-1.1-0.7-2.2-1.1-3.3c-0.4-1-0.8-1.9-1.3-2.8c-0.4-0.7-0.8-1.4-1.2-2
			c-0.4-0.7-0.9-1.3-1.4-1.9c-0.9-1.1-1.8-2.1-2.8-3c-0.2-0.2-0.5-0.4-0.7-0.6c-0.1-0.1-0.2-0.1-0.1-0.3c0.1-0.4,0.3-0.8,0.4-1.2
			c0.4-1,0.7-2,1.1-3.1c0.4-1,0.7-1.9,1.1-2.9c0.4-1.2,0.8-2.3,1.3-3.5c0.4-1.1,0.8-2.2,1.2-3.2c0.3-0.8,0.6-1.6,0.9-2.4
			c0.1-0.2,0.1-0.2,0.2-0.2c1.1,0,2.1,0,3.2,0c1.9,0,3.7,0,5.6,0c1.1,0,2.2,0,3.3,0c0.2,0,0.2,0,0.2,0.2c0.4,1,0.8,2.1,1.2,3.1
			c0.2,0.7,0.5,1.3,0.7,2c0.3,0.9,0.7,1.8,1,2.7c0.4,1,0.7,2,1.1,2.9c0.4,1.1,0.8,2.2,1.2,3.3c0.3,0.7,0.5,1.4,0.8,2.1
			C30.7,26.7,30.7,26.7,30.6,26.8z"/>
	</g>
</g>
<g id="webdesign" class="st0">
	<path class="st3" d="M18.4-11.7c-19.3,0-35,15.7-35,35s15.7,35,35,35s35-15.7,35-35S37.7-11.7,18.4-11.7z M11.2,18.4l-13.8,4.9
		l13.8,4.9v4.9l-20.1-7.4v-4.8l20.1-7.4V18.4z M25.6,33.1v-4.9l13.8-4.9l-13.8-4.9v-4.9l20.1,7.4v4.8L25.6,33.1z"/>
</g>
<g>
	<path class="st2" d="M28.8,1.4H4.2c-1.5,0-2.8,1.3-2.8,2.7v37c0,1.5,1.3,2.7,2.8,2.7h28.4c1.5,0,2.8-1.3,2.8-2.7V8L28.8,1.4z
		 M15.2,15.5c0-0.2,0-0.3,0.1-0.4s0.2-0.1,0.4-0.1h2.8c1.3,0,2.3,0.4,3,1.1c0.7,0.8,1.1,1.9,1.1,3.4s-0.4,2.6-1.1,3.4
		c-0.7,0.8-1.7,1.1-3,1.1h-2.8c-0.2,0-0.3,0-0.4-0.1s-0.1-0.2-0.1-0.4V15.5z M7.7,15.5c0-0.2,0-0.3,0.1-0.4S8,15,8.2,15h2.7
		c0.8,0,1.5,0.2,2.1,0.6c0.6,0.4,0.9,1.1,0.9,2.2c0,0.7-0.2,1.3-0.5,1.7c-0.4,0.4-0.7,0.7-1.2,0.8c-0.4,0.1-0.8,0.2-1.2,0.2H9.4v3.2
		c0,0.2-0.2,0.4-0.7,0.4H8.4c-0.5,0-0.7-0.1-0.7-0.4V15.5z M18.4,40.3L7.7,29.7h10.7h10.7L18.4,40.3z M29.3,15.9
		c0,0.2,0,0.3-0.1,0.4c-0.1,0.1-0.1,0.1-0.3,0.1h-3v2.3h2.9c0.1,0,0.2,0,0.3,0.1c0.1,0.1,0.1,0.2,0.1,0.4v0.3c0,0.2,0,0.3-0.1,0.4
		c-0.1,0.1-0.1,0.1-0.3,0.1h-2.9v3.6c0,0.2-0.2,0.4-0.7,0.4h-0.3c-0.5,0-0.7-0.1-0.7-0.4v-8.3c0-0.2,0-0.3,0.1-0.4
		c0.1-0.1,0.2-0.1,0.4-0.1h4.3c0.1,0,0.2,0,0.3,0.1c0.1,0.1,0.1,0.2,0.1,0.4V15.9z M29.6,10c-1.5,0-2.8-1.3-2.8-2.7V2.5l7.7,7.5
		H29.6z"/>
	<path class="st2" d="M11.8,18.8c0.3-0.2,0.4-0.5,0.4-1c0-0.5-0.1-0.8-0.4-1c-0.3-0.2-0.6-0.3-1-0.3H9.4v2.6h1.5
		C11.2,19.1,11.5,19,11.8,18.8z"/>
	<path class="st2" d="M20.2,21.9c0.4-0.5,0.6-1.3,0.6-2.3c0-1-0.2-1.8-0.6-2.3c-0.4-0.5-1-0.8-1.8-0.8h-1.5v6.2h1.5
		C19.2,22.6,19.8,22.4,20.2,21.9z"/>
</g>
</svg>
