<?xml version="1.0" encoding="utf-8"?>
<!-- Generator: Adobe Illustrator 21.0.2, SVG Export Plug-In . SVG Version: 6.00 Build 0)  -->
<svg version="1.1" id="Ebene_1" xmlns="http://www.w3.org/2000/svg" xmlns:xlink="http://www.w3.org/1999/xlink" x="0px" y="0px"
	 viewBox="0 0 600 400" style="enable-background:new 0 0 600 400;" xml:space="preserve">
<style type="text/css">
	.st0{fill:#70A9A1;}
	.st1{fill:#40798C;}
	.st2{fill:#E3E3E3;}
	.st3{fill:#C6C6C6;}
</style>
<g id="color">
	<g>
		<g>
			<rect x="4.5" y="4.5" class="st0" width="591" height="391"/>
			<path class="st1" d="M591,9v382H9V9H591 M600,0H0v400h600V0L600,0z"/>
		</g>
		<polygon class="st1" points="402.1,180.3 531.8,305.4 272.1,305.4 		"/>
		<circle class="st1" cx="499.3" cy="138.7" r="44.7"/>
		<g>
			<polygon class="st1" points="55.5,308.9 192.5,126.8 329.2,308.9 			"/>
			<path class="st0" d="M192.5,132.6l129.7,172.9H62.5L192.5,132.6 M192.5,120.9l-5.6,7.4l-130,172.9l-8.4,11.2h14h259.7h14
				l-8.4-11.2L198.1,128.4L192.5,120.9L192.5,120.9z"/>
		</g>
	</g>
</g>
<g>
	<rect x="4.5" y="4.5" class="st2" width="591" height="391"/>
	<path class="st3" d="M591,9v382H9V9H591 M600,0H0v400h600V0L600,0z"/>
</g>
<polygon class="st3" points="402.1,180.3 531.8,305.4 272.1,305.4 "/>
<circle class="st3" cx="499.3" cy="138.7" r="44.7"/>
<g>
	<polygon class="st3" points="55.5,308.9 192.5,126.8 329.2,308.9 	"/>
	<path class="st2" d="M192.5,132.6l129.7,172.9H62.5L192.5,132.6 M192.5,120.9l-5.6,7.4l-130,172.9l-8.4,11.2h14h259.7h14l-8.4-11.2
		L198.1,128.4L192.5,120.9L192.5,120.9z"/>
</g>
</svg>
