<?xml version="1.0" encoding="utf-8"?>
<!-- Generator: Adobe Illustrator 21.0.2, SVG Export Plug-In . SVG Version: 6.00 Build 0)  -->
<svg version="1.1" id="Ebene_1" xmlns="http://www.w3.org/2000/svg" xmlns:xlink="http://www.w3.org/1999/xlink" x="0px" y="0px"
	 viewBox="0 0 71 71" style="enable-background:new 0 0 71 71;" xml:space="preserve">
<style type="text/css">
	.st0{fill:#51BCBE;}
</style>
<path class="st0" d="M35.5,0.5c-19.3,0-35,15.7-35,35s15.7,35,35,35s35-15.7,35-35S54.8,0.5,35.5,0.5z M44.6,11.6l-1.1,8.2h-16
	l-1.1-8.2H44.6z M48.9,36.5c-3.3,3.6-6.4,8.8-8.6,14.9c-1.3,3.4-2.1,6.8-2.6,10h-1.4V35c1.4-0.3,2.5-1.6,2.5-3.1
	c0-1.8-1.4-3.2-3.2-3.2s-3.2,1.4-3.2,3.2c0,1.5,1.1,2.8,2.5,3.1v26.4h-1.4c-0.5-3.2-1.4-6.6-2.6-10c-2.3-6.2-5.4-11.4-8.7-15
	c-0.1-0.2-0.2-0.3-0.2-0.3c3.7-6.8,6.2-14.6,6.2-14.6h14.8c0,0,2.6,7.8,6.2,14.6C49.2,36.1,49.1,36.2,48.9,36.5z"/>
</svg>
