<?xml version="1.0" encoding="utf-8"?>
<!-- Generator: Adobe Illustrator 25.2.3, SVG Export Plug-In . SVG Version: 6.00 Build 0)  -->
<svg version="1.1" id="Ebene_1" xmlns="http://www.w3.org/2000/svg" xmlns:xlink="http://www.w3.org/1999/xlink" x="0px" y="0px"
	 viewBox="0 0 71 71" style="enable-background:new 0 0 71 71;" xml:space="preserve">
<style type="text/css">
	.st0{display:none;}
	.st1{display:inline;fill:#51BCBE;}
	.st2{fill:#51BCBE;}
	.st3{fill:#00A29B;}
	.st4{fill:#FFFFFF;}
	.st5{fill:#FFFFFF;stroke:#FFFFFF;stroke-width:3;stroke-linecap:round;stroke-linejoin:round;stroke-miterlimit:10;}
</style>
<g id="webdesign_1_" class="st0">
	<path class="st1" d="M35.5,0.5c-19.3,0-35,15.7-35,35s15.7,35,35,35s35-15.7,35-35S54.8,0.5,35.5,0.5z M28.3,30.6l-13.8,4.9
		l13.8,4.9v4.9L8.2,37.9v-4.8l20.1-7.4V30.6z M42.7,45.3v-4.9l13.8-4.9l-13.8-4.9v-4.9l20.1,7.4v4.8L42.7,45.3z"/>
</g>
<path class="st2" d="M-73.5,0.5c-19.3,0-35,15.7-35,35s15.7,35,35,35s35-15.7,35-35S-54.2,0.5-73.5,0.5z M-58.7,36.5l-20,15.7
	c-0.8,0.6-2,0.1-2-1V19.8c0-1,1.2-1.6,2-1l20,15.7C-58.1,35-58.1,36-58.7,36.5z"/>
<path class="st2" d="M35.5,0.5c-19.3,0-35,15.7-35,35s15.7,35,35,35s35-15.7,35-35S54.8,0.5,35.5,0.5z M44.4,43.7
	c0,1.6-1.3,2.8-2.8,2.8H21.3c-1.6,0-2.8-1.3-2.8-2.8V27.3c0-1.6,1.3-2.8,2.8-2.8h20.2c1.6,0,2.8,1.3,2.8,2.8v16.4H44.4z M56.5,44.3
	c0,1.2-1.4,1.9-2.4,1.3l-7-4.6c-0.2-0.1-0.3-0.4-0.3-0.6v-9.2c0-0.3,0.1-0.5,0.3-0.6l7-4.6c1-0.7,2.4,0.1,2.4,1.3V44.3z"/>
<polygon class="st3" points="-300.8,-63.5 -300.8,-53.6 -300.8,-43.7 -178.5,-43.7 4.8,-43.7 0.8,-53.6 4.8,-63.5 "/>
<circle class="st3" cx="-223" cy="-151.6" r="23"/>
<path class="st4" d="M-222.4-168.9l10.6,13.5c0.4,0.5,0.1,1.3-0.7,1.3h-21.2c-0.7,0-1.1-0.8-0.7-1.3l10.6-13.5
	C-223.4-169.3-222.7-169.3-222.4-168.9z"/>
<g>
	<circle class="st3" cx="-81.6" cy="-148.3" r="18.4"/>
	<path class="st4" d="M-81.1-155.1l7.5,9.6c0.3,0.4,0,1-0.5,1h-15.1c-0.5,0-0.8-0.6-0.5-1l7.5-9.6
		C-81.8-155.4-81.3-155.4-81.1-155.1z"/>
</g>
<polyline class="st5" points="-233,-150 -233,-150 -213,-150 "/>
<polyline class="st5" points="-233,-144.9 -233,-144.9 -213,-144.9 "/>
<polyline class="st5" points="-233,-139.8 -233,-139.8 -213,-139.8 "/>
<circle class="st3" cx="-174.1" cy="-151.6" r="23"/>
<path class="st5" d="M-173.8-167.2l5.3,6.8c0.2,0.3,0,0.7-0.3,0.7h-10.7c-0.3,0-0.5-0.4-0.3-0.7l5.3-6.8
	C-174.3-167.4-173.9-167.4-173.8-167.2z"/>
<polyline class="st5" points="-184.1,-150 -184.1,-150 -164.1,-150 "/>
<polyline class="st5" points="-184.1,-144.9 -184.1,-144.9 -164.1,-144.9 "/>
<polyline class="st5" points="-184.1,-139.8 -184.1,-139.8 -164.1,-139.8 "/>
<g>
	<g>
		<circle class="st3" cx="-125.9" cy="-148.3" r="18.4"/>
	</g>
	<g>
		<path class="st4" d="M-135.9-151.8h20c0.8,0,1.5-0.7,1.5-1.5s-0.7-1.5-1.5-1.5h-20c-0.8,0-1.5,0.7-1.5,1.5
			S-136.8-151.8-135.9-151.8z"/>
		<path class="st4" d="M-115.9-149.8h-20c-0.8,0-1.5,0.7-1.5,1.5s0.7,1.5,1.5,1.5h20c0.8,0,1.5-0.7,1.5-1.5
			S-115.1-149.8-115.9-149.8z"/>
		<path class="st4" d="M-115.9-144.7h-20c-0.8,0-1.5,0.7-1.5,1.5s0.7,1.5,1.5,1.5h20c0.8,0,1.5-0.7,1.5-1.5
			S-115.1-144.7-115.9-144.7z"/>
	</g>
</g>
<circle class="st3" cx="-272" cy="-170.6" r="23"/>
<path class="st5" d="M-271.6-186.1l5.3,6.8c0.2,0.3,0,0.7-0.3,0.7h-10.7c-0.3,0-0.5-0.4-0.3-0.7l5.3-6.8
	C-272.2-186.3-271.8-186.3-271.6-186.1z"/>
<polyline class="st5" points="-282,-168.9 -282,-168.9 -262,-168.9 "/>
<polyline class="st5" points="-282,-163.9 -282,-163.9 -262,-163.9 "/>
<polyline class="st5" points="-282,-158.8 -282,-158.8 -262,-158.8 "/>
</svg>
