<?xml version="1.0" encoding="utf-8"?>
<!-- Generator: Adobe Illustrator 21.0.2, SVG Export Plug-In . SVG Version: 6.00 Build 0)  -->
<svg version="1.1" id="Ebene_1" xmlns="http://www.w3.org/2000/svg" xmlns:xlink="http://www.w3.org/1999/xlink" x="0px" y="0px"
	 viewBox="0 0 100 100" style="enable-background:new 0 0 100 100;" xml:space="preserve">
<style type="text/css">
	.st0{fill:#51BCBE;}
	.st1{clip-path:url(#SVGID_2_);}
	.st2{clip-path:url(#SVGID_4_);}
	.st3{clip-path:url(#SVGID_6_);fill:#FFFFFF;}
</style>
<g>
	<g>
		<polygon class="st0" points="69.5,18.8 69.5,23 69.5,23.4 69.1,23.4 64.6,23.4 64.1,23.4 64.1,23 64.1,18.8 36.1,18.8 36.1,23 
			36.1,23.4 35.7,23.4 31.2,23.4 30.7,23.4 30.7,23 30.7,18.8 17.7,18.8 17.7,99 82.3,99 82.3,18.8 		"/>
	</g>
	<g>
		<g>
			<polygon class="st0" points="69.1,23 64.6,23 64.6,1 69.1,5.5 			"/>
		</g>
		<g>
			<polygon class="st0" points="35.7,23 31.2,23 31.2,5.5 35.7,1 			"/>
		</g>
	</g>
	<g>
		<rect x="36.2" y="1" class="st0" width="27.8" height="4.5"/>
	</g>
</g>
<g>
	<defs>
		<rect id="SVGID_1_" x="16" y="33" width="68" height="51"/>
	</defs>
	<clipPath id="SVGID_2_">
		<use xlink:href="#SVGID_1_"  style="overflow:visible;"/>
	</clipPath>
	<g id="Vektor-Smartobjekt" class="st1">
		<g>
			<defs>
				<rect id="SVGID_3_" x="-3" y="35" width="106" height="46.8"/>
			</defs>
			<clipPath id="SVGID_4_">
				<use xlink:href="#SVGID_3_"  style="overflow:visible;"/>
			</clipPath>
			<g class="st2">
				<defs>
					<rect id="SVGID_5_" x="-3" y="35" width="106" height="46.8"/>
				</defs>
				<clipPath id="SVGID_6_">
					<use xlink:href="#SVGID_5_"  style="overflow:visible;"/>
				</clipPath>
				<path class="st3" d="M43.9,77.5c0.1,0.5-0.1,0.5-0.1,1c0,0,0,0.1,0,0.1c0,0.1-0.1,0.1-0.2,0.1c-0.3,0-0.3-0.1-0.6-0.1
					c0,0,0,0,0,0c-0.5,0-0.5,0-0.9,0s-0.5,0-0.9,0c-0.1,0-0.2,0-0.2-0.1c-0.1,0-0.1-0.1-0.1-0.1c0,0-0.1-0.1-0.2-0.1
					c0-0.1,0.1-0.1,0.1-0.2c0-0.6,0-0.6,0-1.2c0-0.2,0-0.4,0.1-0.5c0.1-0.1,0.1-0.3,0.2-0.4c0.1-0.1,0.2-0.3,0.3-0.4
					c0.1-0.1,0.3-0.2,0.4-0.3c0.1-0.1,0.3-0.1,0.5-0.2c0.1-0.1,0.2-0.2,0.3-0.3c0.1-0.1,0.2-0.2,0.3-0.3c0.1-0.1,0.1-0.2,0.1-0.3
					c0-0.5-0.1-0.5-0.1-1c0-0.1,0.1-0.2,0-0.3c0-0.1-0.2-0.1-0.2-0.1c-0.1,0-0.1-0.1-0.2-0.1c-0.1,0-0.2,0-0.2,0c-0.1,0-0.2,0-0.2,0
					c-0.1,0-0.2,0-0.2,0.1c-0.1,0-0.1,0.1-0.2,0.2c0,0.1,0,0.2,0,0.3c0,0.1-0.1,0.1-0.1,0.1c0,0.3,0.2,0.3,0,0.5
					c-0.1,0.2-0.1,0.1-0.3,0.1c-0.2,0-0.3-0.1-0.4-0.2c-0.1-0.1-0.1-0.2-0.1-0.3c0,0,0.1,0,0.1-0.1c0-0.1,0-0.1,0-0.2
					c0-0.2,0-0.4,0.1-0.6c0.1-0.2,0.2-0.4,0.3-0.5c0.1-0.1,0.3-0.2,0.5-0.2c0.2-0.1,0.4-0.1,0.6-0.1c0.2,0,0.4,0.1,0.6,0.1
					c0.2,0.1,0.4,0.1,0.5,0.2c0.1,0.1,0.3,0.3,0.3,0.4c0.1,0.2,0.1,0.4,0.1,0.6c0,0.5-0.1,0.5-0.1,1c0,0.2,0,0.4-0.1,0.6
					c-0.1,0.2-0.2,0.3-0.3,0.4c-0.1,0.1-0.3,0.2-0.5,0.3c-0.2,0.1-0.3,0.2-0.4,0.3c-0.1,0.1-0.3,0.2-0.4,0.3
					c-0.1,0.1-0.2,0.2-0.3,0.3c-0.1,0.1-0.2,0.2-0.2,0.3c0,0.1,0,0.2,0,0.4c0,0.3-0.1,0.3-0.1,0.6c0,0.1,0,0.2,0,0.2
					c0,0,0.1,0,0.2,0c0.6,0,0.6,0,1.1,0c0.1,0,0.1,0,0.1-0.1c0-0.1,0.1-0.1,0.2-0.2c0.1-0.1,0.1-0.2,0.3-0.2
					C43.7,77.4,43.9,77.3,43.9,77.5"/>
				<path class="st3" d="M46.8,78.7c-0.2,0-0.4,0-0.6-0.1c-0.2-0.1-0.3-0.2-0.4-0.3c-0.1-0.1-0.3-0.2-0.3-0.4
					c-0.1-0.2-0.2-0.4-0.2-0.6c0-0.5,0.1-0.5,0.1-1.1c0-0.5,0-0.5,0-1.1c0-0.5-0.1-0.5-0.1-1.1c0-0.5,0.1-0.5,0.1-1.1
					c0-0.2,0-0.4,0.1-0.6c0.1-0.2,0.2-0.3,0.4-0.4c0.1-0.1,0.3-0.2,0.5-0.3c0.2-0.1,0.4-0.1,0.6-0.1c0.2,0,0.4,0.1,0.6,0.1
					c0.2,0.1,0.3,0.1,0.5,0.2c0.1,0.1,0.3,0.2,0.3,0.4c0.1,0.2,0.1,0.4,0.1,0.6c0,0.5,0,0.5,0,1.1c0,0.5-0.1,0.5-0.1,1.1
					c0,0.5,0.1,0.5,0.1,1.1s0,0.5,0,1.1c0,0.2-0.1,0.4-0.1,0.6c-0.1,0.2-0.2,0.3-0.3,0.4c-0.1,0.1-0.3,0.2-0.5,0.3
					C47.2,78.7,47,78.7,46.8,78.7 M47.4,73.1c0-0.1,0-0.2-0.1-0.3c0-0.1,0-0.2-0.1-0.2c-0.1,0-0.2,0-0.2-0.1c-0.1,0-0.2,0-0.3,0
					c-0.1,0-0.2-0.1-0.3,0c-0.1,0-0.2,0.1-0.2,0.1c-0.1,0-0.1,0.2-0.1,0.2c0,0.1-0.1,0.2-0.1,0.3c0,0.5,0.1,0.5,0.1,1.1
					c0,0.5-0.1,0.5-0.1,1.1c0,0.5,0,0.5,0,1.1s0,0.5,0,1.1c0,0.1,0,0.2,0,0.3c0,0.1,0.1,0.2,0.2,0.2c0.1,0,0.2,0,0.2,0.1
					c0.1,0,0.2,0,0.3,0c0.1,0,0.2,0,0.2-0.1c0.1,0,0.2,0,0.2,0c0.1,0,0.1-0.2,0.1-0.2c0-0.1,0.1-0.2,0.1-0.3c0-0.5,0-0.5,0-1.1
					c0-0.5,0-0.5,0-1.1c0-0.5,0-0.5,0-1.1S47.4,73.6,47.4,73.1"/>
				<path class="st3" d="M51.3,78.7c-0.2,0-0.4,0-0.6,0c-0.2-0.1-0.3-0.2-0.5-0.3c-0.1-0.1-0.3-0.2-0.3-0.4
					c-0.1-0.2-0.1-0.4-0.1-0.6c0-0.5-0.1-0.5-0.1-1.1c0-0.5,0-0.5,0-1.1c0-0.5,0-0.5,0-1.1c0-0.5,0-0.5,0-1.1c0-0.2,0-0.4,0.1-0.6
					c0.1-0.2,0.2-0.3,0.3-0.4c0.1-0.1,0.3-0.2,0.5-0.2c0.2-0.1,0.4-0.1,0.6-0.1c0.2,0,0.4-0.1,0.6,0c0.2,0.1,0.3,0.2,0.4,0.3
					c0.1,0.1,0.3,0.2,0.4,0.4c0.1,0.2,0.2,0.4,0.2,0.6c0,0.5-0.1,0.5-0.1,1.1c0,0.5,0.1,0.5,0.1,1.1c0,0.5-0.1,0.5-0.1,1.1
					s0.1,0.5,0.1,1.1c0,0.2-0.2,0.4-0.2,0.6c-0.1,0.2-0.1,0.3-0.3,0.4c-0.1,0.1-0.3,0.2-0.5,0.3C51.7,78.7,51.5,78.7,51.3,78.7
					 M52,73.1c0-0.1-0.1-0.2-0.1-0.3c0-0.1-0.1-0.2-0.1-0.2c-0.1,0-0.1-0.1-0.2-0.1c-0.1,0-0.2,0-0.3,0c-0.1,0-0.2,0.1-0.2,0.1
					c-0.1,0-0.1,0-0.2,0.1c-0.1,0-0.1,0.1-0.1,0.2c0,0.1-0.1,0.2-0.1,0.3c0,0.5,0,0.5,0,1.1c0,0.5,0,0.5,0,1.1c0,0.5,0,0.5,0,1.1
					s0,0.5,0,1.1c0,0.1,0.1,0.2,0.1,0.3c0,0.1,0,0.2,0.1,0.3c0.1,0,0.2,0,0.2,0.1c0.1,0,0.2,0,0.3,0c0.1,0,0.2,0.1,0.3,0
					c0.1,0,0.1-0.1,0.2-0.2c0.1,0,0.2,0,0.2-0.1c0-0.1,0-0.2,0-0.3c0-0.5,0.1-0.5,0.1-1.1c0-0.5,0-0.5,0-1.1c0-0.5,0-0.5,0-1.1
					C52,73.6,52,73.6,52,73.1"/>
				<path class="st3" d="M56.1,74.1c0.2,0,0.4,0,0.5,0.1c0.2,0.1,0.3,0.2,0.4,0.3c0.1,0.1,0.2,0.3,0.2,0.4c0,0.2,0.1,0.3,0.1,0.5
					c0,0.5,0,0.5,0,0.9c0,0.5,0,0.5,0,0.9c0,0.2,0,0.5-0.1,0.6c-0.1,0.2-0.2,0.3-0.4,0.4c-0.1,0.1-0.3,0.3-0.5,0.3
					c-0.2,0.1-0.4,0-0.6,0c-0.2,0-0.4-0.1-0.6-0.1c-0.2-0.1-0.3-0.2-0.5-0.3c-0.1-0.1-0.3-0.2-0.4-0.4c-0.1-0.2-0.1-0.4-0.1-0.6
					c0-0.1,0-0.1,0-0.2c0-0.3,0-0.3,0-0.6c0,0,0.1,0,0.1,0c0,0,0.1,0,0.1,0.1c0,0,0.1,0,0.2,0c0.1,0,0.2,0,0.3,0
					c0.1,0,0.2,0.1,0.2,0.1c0,0.1,0,0.2,0,0.2c0,0.1,0.1,0.1,0.1,0.1c0,0,0,0,0,0.1c0,0.1-0.1,0.1-0.1,0.1c0,0.2,0.1,0.5,0.2,0.5
					c0.1,0.1,0.3,0.1,0.5,0.1c0.1,0,0.2,0,0.3,0c0.1,0,0.1-0.1,0.2-0.2c0.1,0,0.1-0.1,0.1-0.2c0-0.1,0.1-0.2,0.1-0.3
					c0-0.5,0.1-0.5,0.1-0.9c0-0.5-0.1-0.5-0.1-0.9c0-0.2,0-0.4-0.2-0.5c-0.1-0.1-0.2-0.2-0.4-0.2s-0.3,0.1-0.4,0.2
					c-0.1,0.1-0.3,0.2-0.3,0.5c0,0,0.1,0,0,0c-0.1,0,0,0.1-0.1,0.1c-0.1,0-0.1,0-0.2,0c0,0-0.1,0.1-0.2,0c-0.1,0-0.1,0-0.2-0.1
					c-0.1,0-0.1-0.1-0.1-0.2c0-0.1-0.1-0.2-0.1-0.3c0-0.1,0-0.2,0-0.3c0-0.2,0-0.3,0-0.5c0-0.2,0-0.4,0-0.6c0-0.2,0-0.4,0-0.6
					c0-0.2,0.1-0.3,0.1-0.5c0-0.1,0-0.2,0-0.3c0-0.1,0.1-0.2,0.1-0.3c0.1-0.1,0.1-0.2,0.3-0.2c0.6,0,0.6,0,1.3,0
					c0.1,0,0.1-0.1,0.2-0.1c0.2,0,0.2,0.1,0.4,0.1c0.1,0,0.2,0,0.3,0c0.1,0.1,0.1,0.2,0.1,0.3c0,0.4,0.1,0.4-0.1,0.9
					c0,0.1-0.1-0.1-0.3-0.1c-0.1,0-0.2,0-0.3,0c-0.1-0.1-0.1-0.1-0.2-0.2c0,0,0-0.1,0-0.1c0,0-0.1,0-0.2,0c0,0,0,0-0.1,0
					c-0.4,0-0.4,0-0.7,0c-0.1,0-0.1,0-0.1,0c0,0,0,0.1,0,0.1c0,0,0,0.1,0,0.2c0,0.1,0,0.3,0,0.4c0,0.2,0,0.3,0,0.5
					c0,0.2-0.1,0.3-0.1,0.4c0,0,0,0.1,0,0.1c0,0,0,0,0-0.1c0.1-0.1,0.2-0.2,0.4-0.2C55.8,74.1,55.9,74,56.1,74.1
					C56.1,74,56.1,74.1,56.1,74.1"/>
				<polygon class="st3" points="49.3,35.5 49.5,36.2 49.7,36.9 49.9,37.5 50.2,38.2 50.8,38.2 51.6,38.3 52.3,38.2 53,38.2 
					52.4,38.7 51.8,39.1 51.2,39.4 50.7,39.9 50.9,40.6 51.1,41.2 51.3,41.9 51.6,42.6 51,42.2 50.4,41.8 49.8,41.4 49.3,40.9 
					48.7,41.4 48.1,41.8 47.6,42.2 47,42.6 47.2,41.9 47.4,41.3 47.7,40.6 47.9,39.9 47.2,39.5 46.7,39.1 46.1,38.7 45.6,38.2 
					46.3,38.2 47,38.2 47.7,38.2 48.4,38.3 48.7,37.6 48.9,36.9 49,36.2 				"/>
				<polygon class="st3" points="40.4,37.4 40.6,38.1 40.9,38.8 41,39.5 41.3,40.2 42,40.1 42.7,40.1 43.4,40.2 44.2,40.1 
					43.6,40.6 43,41 42.4,41.4 41.9,41.8 42,42.5 42.3,43.2 42.5,43.8 42.7,44.5 42.2,44 41.5,43.7 41,43.3 40.4,42.9 39.8,43.2 
					39.2,43.7 38.7,44.1 38.1,44.5 38.3,43.8 38.6,43.2 38.7,42.5 38.9,41.8 38.4,41.4 37.9,41 37.3,40.5 36.7,40.2 37.4,40.1 
					38.1,40.1 38.8,40.1 39.5,40.1 39.8,39.5 40,38.8 40.2,38.1 				"/>
				<polygon class="st3" points="58.1,37.5 58.3,38.1 58.6,38.8 58.8,39.5 59,40.2 59.7,40.1 60.4,40.2 61.1,40.1 61.8,40.2 
					61.3,40.5 60.6,40.9 60.1,41.4 59.5,41.8 59.8,42.5 59.9,43.2 60.2,43.9 60.4,44.5 59.8,44.1 59.2,43.7 58.7,43.3 58.1,42.8 
					57.5,43.2 57,43.7 56.4,44.1 55.8,44.5 56,43.8 56.3,43.2 56.5,42.5 56.7,41.8 56.1,41.4 55.5,41 55,40.5 54.4,40.2 55.1,40.1 
					55.8,40.1 56.5,40.2 57.2,40.1 57.5,39.5 57.6,38.8 57.9,38.1 				"/>
				<path class="st3" d="M71.9,45.4C71.9,45.4,71.9,45.4,71.9,45.4c-0.1,0.1-0.1,0.1-0.3,0.2c0,0,0,0,0,0.1c0,0,0,0,0,0
					c-0.3,0.2-0.3,0.2-0.6,0.5c-0.3,0.2-0.3,0.3-0.6,0.5c-0.3,0.2-0.3,0.2-0.6,0.4c-0.3,0.2-0.3,0.2-0.6,0.5
					c-0.3,0.2-0.3,0.2-0.6,0.5c-0.3,0.2-0.3,0.2-0.6,0.5c-0.3,0.2-0.3,0.3-0.6,0.5c-0.3,0.2-0.3,0.2-0.6,0.5c0.2,0,0.5,0,0.7,0
					c0.2,0,0.5,0,0.7,0c0.2,0,0.5,0,0.7,0s0.5,0,0.7,0c0.2,0,0.5,0.1,0.7,0.1s0.5,0,0.7,0c0.2,0,0.5,0,0.7,0c0.2,0,0.5-0.1,0.7-0.1
					c0.2,0,0.5,0.1,0.7,0.1c0.2,0,0.5,0.1,0.7,0.1c0.2,0,0.5-0.1,0.7-0.1c0.2,0,0.5,0,0.7,0c0.2,0,0.5,0,0.7,0c0.2,0,0.5,0,0.7,0
					c0.2,0,0.5,0,0.7,0c0.2,0,0.5,0,0.7,0c0.2,0,0.5,0,0.7,0c0.2,0,0.5,0,0.7,0c0.2,0,0.5-0.1,0.7-0.1c0.2,0,0.5,0,0.7,0
					c0.2,0,0.5-0.1,0.7-0.1c0.2,0,0.5,0.1,0.7,0.1c0.2,0,0.5,0,0.7,0c0.2,0,0.5,0,0.7,0c0.2,0,0.5,0,0.7,0c0.2,0,0.5,0,0.7,0
					c0.2,0,0.5,0,0.7,0c0.2,0,0.5,0,0.7,0c0.2,0,0.5-0.1,0.7-0.1c0.2,0,0.5,0,0.7,0c0.2,0,0.5,0,0.7,0c0.2,0,0.5,0,0.7,0
					c0.2,0,0.5,0,0.7,0c0.3,0,0.5,0,0.7,0c0.3,0,0.5,0,0.7,0c0.3,0,0.5,0.1,0.7,0.1c0.3,0,0.5,0,0.7,0c0.3,0,0.5,0,0.7,0
					c0.3,0,0.5-0.1,0.7-0.1c0.4,0,0.7,0.1,0.7,0.1c0.2,0,0.5-0.1,0.7-0.1c0.2,0,0.5-0.1,0.7-0.1c0.2,0,0.5-0.1,0.7-0.1
					c0.2-0.1,0.5-0.1,0.7-0.2c0.2-0.1,0.5-0.1,0.7-0.3c0.2-0.1,0.4-0.3,0.6-0.4c0.2-0.1,0.4-0.2,0.6-0.4c0.2-0.1,0.3-0.4,0.5-0.5
					c0.2-0.2,0.4-0.3,0.5-0.5c0.2-0.2,0.4-0.3,0.5-0.5c0.2-0.2,0.3-0.4,0.4-0.6c0.2-0.4,0.7-0.5,0.3-0.6c-0.3-0.1-0.4,0-0.7,0
					c-0.4,0-0.4,0-0.7,0c-0.4,0-0.4,0.1-0.7,0.1c-0.4,0-0.4,0-0.7,0c-0.4,0-0.4,0-0.7,0c-0.4,0-0.4-0.1-0.7-0.1c-0.4,0-0.4,0-0.7,0
					s-0.4,0.1-0.7,0.1s-0.4-0.1-0.7-0.1c-0.4,0-0.4,0.1-0.7,0.1s-0.4,0-0.7,0c-0.4,0-0.4,0-0.7,0c-0.4,0-0.4,0-0.7,0
					c-0.4,0-0.4-0.1-0.7-0.1c-0.4,0-0.4,0-0.7,0c-0.4,0-0.4,0-0.7,0c-0.4,0-0.4,0-0.7,0c-0.4,0-0.4,0.1-0.7,0.1c-0.4,0-0.4,0-0.7,0
					c-0.4,0-0.4,0-0.7,0c-0.4,0-0.4-0.1-0.7-0.1c-0.4,0-0.4,0.1-0.7,0.1s-0.4-0.1-0.7-0.1c-0.4,0-0.4,0-0.7,0c-0.4,0-0.4,0-0.7,0
					c-0.4,0-0.4,0-0.7,0s-0.4,0-0.7,0c-0.4,0-0.4,0-0.7,0c-0.4,0-0.4,0-0.7,0s-0.4,0-0.7,0c-0.4,0-0.4,0-0.7,0c-0.4,0-0.4,0-0.7,0
					c-0.4,0-0.4,0-0.7,0c-0.4,0-0.4,0.1-0.7,0.1c-0.4,0-0.4-0.1-0.7-0.1c-0.4,0-0.4,0.1-0.7,0.1c-0.4,0-0.4,0-0.7,0
					c-0.4,0-0.4-0.1-0.7-0.1c-0.4,0-0.4,0-0.7,0c-0.4,0-0.4,0-0.7,0c-0.4,0-0.4,0-0.7,0C72.3,45.4,72.3,45.4,71.9,45.4"/>
				<path class="st3" d="M60.8,54.7c0.3,0,0.5,0,0.7,0c0.3,0,0.5,0,0.8,0c0.3,0,0.5-0.1,0.8-0.1c0.3,0,0.5,0,0.8,0
					c0.3,0,0.5,0,0.8,0c0.3,0,0.6,0.1,0.8,0.1c0.5,0,0.7-0.1,0.8-0.1c0.2,0,0.5,0,0.7,0c0.2,0,0.5,0.1,0.7,0.1c0.2,0,0.5,0,0.7,0
					c0.2,0,0.5-0.1,0.7-0.1c0.2,0,0.5,0,0.7,0c0.2,0,0.5,0,0.7,0s0.5,0.1,0.7,0.1c0.2,0,0.5,0,0.7,0s0.5,0,0.7,0c0.2,0,0.5,0,0.7,0
					c0.2,0,0.5,0,0.7,0c0.2,0,0.5,0,0.7,0c0.2,0,0.5,0,0.7,0c0.2,0,0.5,0,0.7,0c0.2,0,0.5,0,0.7,0c0.2,0,0.5,0.1,0.7,0.1
					c0.2,0,0.5-0.1,0.7-0.1c0.2,0,0.5,0,0.7,0c0.2,0,0.5,0.1,0.7,0.1c0.2,0,0.5,0,0.7,0c0.2,0,0.5,0,0.7,0c0.2,0,0.5-0.1,0.7-0.1
					c0.2,0,0.5,0,0.7,0c0.2,0,0.5,0,0.7,0c0.2,0,0.5-0.1,0.7-0.1c0.2,0,0.5,0,0.7,0c0.3,0,0.5,0.1,0.7,0.1c0.3,0,0.5,0,0.7,0
					c0.3,0,0.5,0.1,0.7,0.1c0.3,0,0.5-0.1,0.7-0.1c0.3,0,0.5,0,0.7,0c0.3,0,0.5,0,0.7,0c0.4,0,0.7,0,0.7,0c0.2,0,0.5,0,0.7-0.1
					c0.2,0,0.5-0.1,0.7-0.2c0.2,0,0.5,0,0.7-0.1c0.2-0.1,0.4-0.2,0.6-0.3c0.2-0.1,0.4-0.2,0.6-0.3c0.2-0.1,0.5-0.1,0.7-0.3
					c0.2-0.1,0.4-0.3,0.6-0.4c0.2-0.1,0.3-0.4,0.5-0.5c0.2-0.2,0.4-0.3,0.6-0.4c0.2-0.2,0.3-0.4,0.4-0.5c0.2-0.2,0.2-0.5,0.3-0.6
					c0.2-0.4,0.7-0.4,0.4-0.5c-0.3-0.1-0.3-0.1-0.7-0.1c-0.4,0-0.4,0-0.7,0s-0.4,0-0.7,0c-0.4,0-0.4,0-0.7,0s-0.4,0-0.7,0
					c-0.4,0-0.4,0-0.7,0s-0.4-0.1-0.7-0.1c-0.4,0-0.4,0.1-0.7,0.1c-0.4,0-0.4-0.1-0.7-0.1c-0.4,0-0.4,0.1-0.7,0.1
					c-0.4,0-0.4-0.1-0.7-0.1s-0.4,0-0.7,0c-0.4,0-0.4,0-0.7,0c-0.4,0-0.4,0.1-0.7,0.1c-0.4,0-0.4,0-0.7,0c-0.4,0-0.4,0-0.7,0
					c-0.4,0-0.4,0-0.7,0c-0.4,0-0.4,0-0.7,0s-0.4-0.1-0.7-0.1c-0.4,0-0.4,0-0.7,0c-0.4,0-0.4,0-0.7,0c-0.4,0-0.4,0-0.7,0
					c-0.4,0-0.4,0-0.7,0c-0.4,0-0.4,0-0.7,0c-0.4,0-0.4,0-0.7,0c-0.4,0-0.4,0-0.7,0c-0.4,0-0.4,0-0.7,0c-0.4,0-0.4-0.1-0.7-0.1
					c-0.4,0-0.4,0-0.7,0c-0.4,0-0.4,0-0.7,0c-0.4,0-0.4,0-0.7,0c-0.4,0-0.4,0-0.7,0c-0.4,0-0.4,0-0.7,0s-0.4,0-0.7,0
					c-0.4,0-0.4,0-0.7,0c-0.4,0-0.4,0-0.7,0c-0.4,0-0.4,0-0.7,0c-0.4,0-0.4,0-0.7,0c-0.4,0-0.4,0-0.7,0s-0.4,0-0.7,0
					c-0.4,0-0.4-0.1-0.7-0.1c-0.4,0-0.4,0.1-0.7,0.1c-0.4,0-0.4-0.1-0.7,0c-0.3,0.1-0.3,0.2-0.5,0.5c-0.3,0.2-0.3,0.2-0.5,0.5
					c-0.3,0.2-0.3,0.2-0.6,0.5c-0.3,0.2-0.3,0.2-0.6,0.4c-0.3,0.2-0.3,0.2-0.6,0.5c-0.3,0.2-0.3,0.2-0.6,0.5
					c-0.3,0.2-0.2,0.3-0.5,0.5c-0.3,0.2-0.3,0.2-0.6,0.4C61,54.4,61,54.4,60.8,54.7"/>
				<path class="st3" d="M63.9,55.6c-0.4,0-0.4,0-0.7,0c-0.4,0-0.4,0-0.7,0c-0.4,0-0.4,0-0.7,0c-0.4,0-0.4,0-0.7,0
					c-0.4,0-0.4,0-0.7,0c-0.4,0-0.4-0.1-0.7,0c-0.3,0.1-0.2,0.3-0.5,0.5c-0.3,0.2-0.3,0.1-0.6,0.4c-0.3,0.2-0.3,0.2-0.6,0.5
					c-0.3,0.2-0.3,0.2-0.5,0.5c-0.3,0.2-0.2,0.3-0.5,0.5c-0.3,0.2-0.4,0.1-0.6,0.4c-0.3,0.2-0.3,0.3-0.5,0.5
					c-0.3,0.2-0.2,0.3-0.5,0.5c-0.3,0.2-0.4,0.1-0.6,0.4c0.2,0,0.5,0,0.7,0c0.2,0,0.5,0,0.7,0c0.2,0,0.5,0,0.7,0c0.2,0,0.5,0,0.7,0
					c0.2,0,0.5-0.1,0.7-0.1c0.2,0,0.5,0,0.7,0c0.2,0,0.5,0.1,0.7,0.1c0.2,0,0.5,0,0.7,0c0.2,0,0.5,0,0.7,0c0.2,0,0.5,0,0.7,0
					c0.2,0,0.5,0,0.7,0c0.2,0,0.5,0,0.7,0c0.2,0,0.5,0.1,0.7,0.1c0.2,0,0.5,0,0.7,0c0.2,0,0.5-0.1,0.7-0.1c0.2,0,0.5,0,0.7,0
					c0.2,0,0.5,0.1,0.7,0.1c0.2,0,0.5-0.1,0.7-0.1c0.2,0,0.5,0.1,0.7,0.1c0.2,0,0.5-0.1,0.7-0.1c0.2,0,0.5,0,0.7,0
					c0.2,0,0.5,0,0.7,0c0.2,0,0.5,0,0.7,0c0.3,0,0.5,0,0.7,0c0.3,0,0.5,0,0.7,0c0.3,0,0.5,0.1,0.7,0.1c0.4,0,0.7-0.1,0.7-0.1
					c0.2,0,0.5,0.1,0.7,0.1c0.2,0,0.5,0,0.7,0c0.2,0,0.5,0,0.7,0c0.2,0,0.5,0,0.7,0c0.2,0,0.5,0,0.7,0c0.2,0,0.5,0,0.7,0
					c0.2,0,0.5,0,0.7,0c0.2,0,0.5-0.1,0.7-0.1c0.3,0,0.5,0,0.7,0c0.3,0,0.5,0.1,0.7,0.1c0.3,0,0.5-0.1,0.7-0.1c0.4,0,0.6,0,0.7,0
					c0.2,0,0.5,0,0.7,0c0.2,0,0.5-0.1,0.7-0.1c0.2,0,0.5,0,0.7,0c0.2-0.1,0.4-0.2,0.7-0.3c0.2-0.1,0.5-0.1,0.7-0.2
					c0.2-0.1,0.4-0.3,0.6-0.4c0.2-0.1,0.4-0.2,0.6-0.4c0.2-0.1,0.3-0.3,0.5-0.5c0.2-0.2,0.3-0.4,0.5-0.5c0.2-0.2,0.3-0.4,0.4-0.5
					c0.2-0.2,0.3-0.4,0.4-0.6c0.2-0.4,0.6-0.4,0.3-0.6c-0.3-0.1-0.3,0-0.7,0c-0.4,0-0.4,0-0.7,0c-0.4,0-0.4,0-0.7,0
					s-0.4-0.1-0.7-0.1c-0.4,0-0.4,0-0.7,0s-0.4-0.1-0.7-0.1c-0.4,0-0.4,0.1-0.7,0.1c-0.4,0-0.4-0.1-0.7-0.1c-0.4,0-0.4,0.1-0.7,0.1
					c-0.4,0-0.4,0-0.7,0c-0.4,0-0.4,0-0.7,0c-0.4,0-0.4,0-0.7,0c-0.4,0-0.4,0-0.7,0c-0.4,0-0.4,0-0.7,0c-0.4,0-0.4,0.1-0.7,0.1
					c-0.4,0-0.4,0-0.7,0c-0.4,0-0.4-0.1-0.7-0.1c-0.4,0-0.4,0-0.7,0c-0.4,0-0.4,0-0.7,0c-0.4,0-0.4,0-0.7,0c-0.4,0-0.4,0.1-0.7,0.1
					c-0.4,0-0.4,0-0.7,0c-0.4,0-0.4,0-0.7,0c-0.4,0-0.4,0-0.7,0s-0.4-0.1-0.7-0.1s-0.4,0-0.7,0c-0.4,0-0.4,0-0.7,0
					c-0.4,0-0.4,0.1-0.7,0.1c-0.4,0-0.4,0-0.7,0c-0.4,0-0.4-0.1-0.7-0.1c-0.4,0-0.4,0-0.7,0c-0.4,0-0.4,0-0.7,0
					c-0.4,0-0.4,0.1-0.7,0.1c-0.4,0-0.4,0-0.7,0C64.3,55.6,64.3,55.6,63.9,55.6"/>
				<path class="st3" d="M54.7,60.7c-0.1,0.3,0.3,0.3,0.6,0.5c0.3,0.2,0.3,0.2,0.6,0.4c0.3,0.2,0.3,0.3,0.5,0.5
					c0.3,0.2,0.3,0.2,0.6,0.4c0.3,0.2,0.3,0.2,0.6,0.4c0.3,0.2,0.2,0.3,0.5,0.5c0.3,0.2,0.3,0.2,0.6,0.4c0.3,0.2,0.3,0.2,0.6,0.5
					c0.3,0.2,0.2,0.3,0.5,0.5c0.3,0,0.5,0,0.8,0c0.3,0,0.5,0,0.8,0c0.3,0,0.5,0.1,0.8,0.1c0.3,0,0.5,0,0.8,0c0.3,0,0.5,0.1,0.8,0.1
					c0.3,0,0.5-0.1,0.8-0.1c0.2,0,0.5,0,0.7,0c0.2,0,0.5,0,0.7,0c0.2,0,0.5,0,0.7,0c0.2,0,0.5,0,0.7,0c0.2,0,0.5,0,0.7,0
					c0.2,0,0.5,0,0.7,0c0.2,0,0.5,0,0.7,0c0.2,0,0.5-0.1,0.7-0.1c0.2,0,0.5,0,0.7,0c0.3,0,0.5,0,0.7,0c0.3,0,0.5,0,0.7,0
					c0.3,0,0.5,0,0.7,0c0.3,0,0.5-0.1,0.7-0.1c0.3,0,0.5,0,0.7,0c0.4,0,0.7,0,0.7,0c0.2,0,0.5,0,0.7,0c0.2,0,0.5-0.1,0.7-0.1
					c0.2,0,0.5-0.1,0.7-0.1c0.2-0.1,0.5-0.1,0.7-0.2c0.2-0.1,0.4-0.2,0.6-0.3c0.2-0.1,0.4-0.3,0.6-0.4c0.2-0.1,0.4-0.3,0.6-0.4
					c0.2-0.1,0.4-0.3,0.5-0.4c0.2-0.2,0.4-0.3,0.5-0.5c0.2-0.2,0.2-0.4,0.4-0.6c0.2-0.2,0.4-0.4,0.5-0.5c0.2-0.4,0.6-0.5,0.3-0.6
					c-0.3-0.1-0.4,0-0.7,0s-0.4,0-0.7,0c-0.4,0-0.4,0-0.7,0c-0.4,0-0.4,0.1-0.7,0.1c-0.4,0-0.4-0.1-0.7-0.1c-0.4,0-0.4,0-0.7,0
					c-0.4,0-0.4,0.1-0.7,0.1c-0.4,0-0.4,0-0.7,0c-0.4,0-0.4-0.1-0.7-0.1c-0.4,0-0.4,0.1-0.7,0.1s-0.4,0-0.7,0s-0.4,0-0.7,0
					c-0.4,0-0.4,0-0.7,0c-0.4,0-0.4,0-0.7,0s-0.4,0-0.7,0c-0.4,0-0.4-0.1-0.7-0.1c-0.4,0-0.4,0-0.7,0s-0.4,0.1-0.7,0.1
					c-0.4,0-0.4,0-0.7,0c-0.4,0-0.4,0-0.7,0c-0.4,0-0.4,0-0.7,0c-0.4,0-0.4-0.1-0.7-0.1c-0.4,0-0.4,0.1-0.7,0.1c-0.4,0-0.4,0-0.7,0
					c-0.4,0-0.4-0.1-0.7-0.1c-0.4,0-0.4,0-0.7,0c-0.4,0-0.4,0.1-0.7,0.1c-0.4,0-0.4,0-0.7,0c-0.4,0-0.4,0-0.7,0c-0.4,0-0.4,0-0.7,0
					c-0.4,0-0.4,0-0.7,0c-0.4,0-0.4,0-0.8,0c-0.4,0-0.4,0-0.8,0s-0.4,0-0.8,0c-0.4,0-0.4,0.1-0.8,0.1c-0.4,0-0.4,0.1-0.8,0
					C55,60.7,54.8,60.4,54.7,60.7"/>
				<path class="st3" d="M65.8,70.1c0.3,0,0.6,0,0.8,0c0.5,0,0.7,0,0.8,0c0.2,0,0.5,0,0.7,0c0.2,0,0.5,0,0.7-0.1
					c0.2,0,0.5-0.1,0.7-0.2c0.2-0.1,0.5-0.1,0.7-0.2c0.2-0.1,0.4-0.2,0.6-0.3c0.2-0.1,0.4-0.2,0.6-0.3c0.2-0.1,0.4-0.3,0.6-0.4
					c0.2-0.1,0.4-0.3,0.5-0.5c0.2-0.2,0.4-0.3,0.5-0.5c0.2-0.2,0.3-0.4,0.4-0.5c0.2-0.2,0.3-0.4,0.4-0.6c0.2-0.4,0.6-0.5,0.3-0.6
					c-0.3-0.1-0.4,0-0.7,0c-0.4,0-0.4,0-0.7,0c-0.4,0-0.4,0-0.7,0s-0.4,0-0.7,0c-0.4,0-0.4,0-0.7,0c-0.4,0-0.4,0-0.7,0
					c-0.4,0-0.4,0-0.7,0c-0.4,0-0.4,0-0.7,0c-0.4,0-0.4,0-0.7,0c-0.4,0-0.4,0-0.7,0h-0.7c-0.4,0-0.4,0-0.7,0c-0.4,0-0.4,0-0.7,0
					c-0.4,0-0.4,0-0.7,0c-0.4,0-0.4,0-0.7,0c-0.4,0-0.4,0-0.7,0c-0.4,0-0.4,0-0.7,0c-0.4,0-0.6-0.4-0.7,0c-0.1,0.3,0.3,0.2,0.5,0.5
					c0.3,0.2,0.3,0.2,0.6,0.5c0.3,0.2,0.3,0.2,0.5,0.5c0.3,0.2,0.3,0.2,0.6,0.4c0.3,0.2,0.3,0.2,0.5,0.5c0.3,0.2,0.3,0.2,0.6,0.4
					c0.3,0.2,0.3,0.2,0.6,0.5c0.3,0.2,0.3,0.2,0.6,0.5C65.6,69.9,65.5,69.9,65.8,70.1"/>
				<path class="st3" d="M29.4,48.3c-0.2-0.2-0.2-0.2-0.5-0.4c-0.2-0.2-0.2-0.2-0.5-0.4c-0.2-0.2-0.3-0.2-0.5-0.4
					c-0.2-0.2-0.4-0.4-0.5-0.7c-0.1-0.3-0.2-0.5-0.1-0.8c-0.1-0.2,0-0.3-0.2-0.3c-0.4-0.1-0.4,0-0.7,0c-0.4,0-0.4,0.1-0.7,0.1
					s-0.4,0-0.7,0c-0.4,0-0.4-0.1-0.7-0.1s-0.4,0-0.7,0c-0.4,0-0.4,0.1-0.7,0.1c-0.4,0-0.4-0.1-0.7-0.1s-0.4,0.1-0.7,0.1
					c-0.4,0-0.4-0.1-0.7-0.1s-0.4,0.1-0.7,0.1c-0.4,0-0.4,0-0.7,0c-0.4,0-0.4,0-0.7,0c-0.4,0-0.4,0-0.7,0c-0.4,0-0.4,0-0.7,0
					s-0.4-0.1-0.7-0.1c-0.4,0-0.4,0.1-0.7,0.1c-0.4,0-0.4-0.1-0.7-0.1c-0.4,0-0.4,0-0.7,0c-0.4,0-0.4,0-0.7,0
					c-0.4,0-0.4,0.1-0.7,0.1s-0.4,0-0.7,0c-0.4,0-0.4-0.1-0.7-0.1c-0.4,0-0.4,0.1-0.7,0.1c-0.4,0-0.4,0-0.7,0c-0.4,0-0.4,0-0.7,0
					c-0.4,0-0.4-0.1-0.7-0.1c-0.4,0-0.4,0-0.7,0c-0.4,0-0.4,0-0.7,0c-0.4,0-0.4,0-0.7,0c-0.4,0-0.4,0-0.7,0c-0.4,0-0.4,0-0.7,0
					c-0.4,0-0.4,0-0.7,0c-0.4,0-0.4,0.1-0.7,0.1c-0.4,0-0.4,0-0.7,0c-0.4,0-0.4,0-0.7,0c-0.4,0-0.4-0.1-0.7-0.1s-0.4,0.1-0.7,0.1
					c-0.4,0-0.4-0.1-0.7-0.1c-0.4,0-0.4,0-0.7,0c-0.4,0-0.4,0-0.7,0c-0.4,0-0.4-0.1-0.7,0c-0.3,0.1,0.1,0.3,0.4,0.6
					c0.1,0.2,0.2,0.4,0.4,0.6c0.1,0.2,0.3,0.3,0.5,0.5c0.1,0.2,0.3,0.3,0.5,0.5c0.2,0.2,0.3,0.3,0.5,0.4c0.2,0.1,0.4,0.3,0.6,0.4
					c0.2,0.1,0.4,0.3,0.6,0.4c0.2,0.1,0.4,0.3,0.6,0.4c0.2,0.1,0.5,0.1,0.7,0.2c0.2,0.1,0.5,0.1,0.7,0.1c0.2,0,0.4,0.2,0.7,0.2
					c0.2,0,0.5,0,0.7,0c0,0,0.3-0.1,0.7-0.1c0.2,0,0.4,0,0.7,0c0.2,0,0.5,0,0.7,0c0.2,0,0.5,0,0.7,0c0.2,0,0.5,0,0.7,0
					c0.2,0,0.5,0.1,0.7,0.1c0.2,0,0.5,0,0.7,0c0.2,0,0.5,0,0.7,0c0.2,0,0.5-0.1,0.7-0.1c0.2,0,0.5,0.1,0.7,0.1c0.2,0,0.5,0,0.7,0
					c0.2,0,0.5,0,0.7,0c0.2,0,0.5-0.1,0.7-0.1c0.2,0,0.5,0,0.7,0c0.2,0,0.5,0.1,0.7,0.1c0.2,0,0.5,0,0.7,0c0.2,0,0.5,0.1,0.7,0.1
					c0.2,0,0.5,0,0.7,0c0.2,0,0.5-0.1,0.7-0.1c0.2,0,0.5,0,0.7,0c0.2,0,0.5,0,0.7,0c0.2,0,0.5,0,0.7,0c0.2,0,0.5,0,0.7,0
					c0.2,0,0.5,0,0.7,0c0.2,0,0.5,0.1,0.7,0.1c0.2,0,0.5,0,0.7,0c0.2,0,0.5,0,0.7,0c0.2,0,0.5,0,0.7,0c0.2,0,0.5,0,0.7,0
					c0.2,0,0.5-0.1,0.7-0.1s0.5,0,0.7,0c0.2,0,0.5,0,0.7,0s0.5,0,0.7,0c0.2,0,0.5,0,0.7,0c0.2,0,0.5,0,0.7,0c0.2,0,0.5,0.1,0.7,0.1
					s0.5-0.1,0.7-0.1c0,0,0,0,0,0c-0.2-0.2-0.2-0.2-0.5-0.4C30,49,30,49,29.8,48.8C29.6,48.6,29.6,48.5,29.4,48.3"/>
				<path class="st3" d="M3,50.5c-0.3,0.1,0.1,0.2,0.3,0.6c0.1,0.2,0.3,0.3,0.4,0.5c0.1,0.2,0.2,0.4,0.3,0.6
					c0.1,0.2,0.3,0.3,0.5,0.5C4.8,52.9,5,53,5.2,53.1c0.2,0.1,0.3,0.4,0.5,0.5c0.2,0.1,0.4,0.2,0.6,0.4c0.2,0.1,0.4,0.1,0.7,0.2
					c0.2,0.1,0.4,0.1,0.7,0.2c0.2,0.1,0.4,0.2,0.7,0.2c0.2,0,0.5,0.1,0.7,0.1c0.2,0,0.5,0,0.7,0c0.1,0,0.3,0,0.7,0
					c0.2,0,0.4,0,0.7,0c0.2,0,0.5,0,0.7,0c0.2,0,0.5,0.1,0.7,0.1c0.2,0,0.5-0.1,0.7-0.1c0.2,0,0.5,0.1,0.7,0.1c0.2,0,0.5,0,0.7,0
					c0.2,0,0.5,0,0.7,0c0.2,0,0.5,0,0.7,0c0.2,0,0.5,0,0.7,0c0.2,0,0.5,0,0.7,0c0.2,0,0.5,0,0.7,0c0.2,0,0.5,0.1,0.7,0.1
					c0.2,0,0.5-0.1,0.7-0.1c0.2,0,0.5-0.1,0.7-0.1c0.2,0,0.5,0,0.7,0c0.2,0,0.5,0.1,0.7,0.1c0.2,0,0.5,0,0.7,0c0.2,0,0.5,0,0.7,0
					c0.2,0,0.5-0.1,0.7-0.1c0.2,0,0.5,0,0.7,0c0.2,0,0.5-0.1,0.7-0.1c0.2,0,0.5,0,0.7,0c0.2,0,0.5,0.1,0.7,0.1
					c0.2,0,0.5-0.1,0.7-0.1c0.2,0,0.5,0.1,0.7,0.1c0.2,0,0.5,0,0.7,0c0.2,0,0.5,0,0.7,0c0.2,0,0.5,0.1,0.7,0.1
					c0.2,0,0.5-0.1,0.7-0.1c0.2,0,0.5,0,0.7,0c0.2,0,0.5,0,0.7,0c0.2,0,0.5,0,0.7,0c0,0,0.3,0,0.7,0c0.2,0,0.4,0,0.7,0
					c0.2,0,0.4,0,0.7,0c0.2,0,0.4,0,0.7,0c-0.2-0.3-0.2-0.3-0.5-0.5c-0.3-0.2-0.3-0.2-0.6-0.4c-0.3-0.2-0.3-0.2-0.6-0.4
					s-0.3-0.3-0.5-0.5c-0.3-0.2-0.2-0.3-0.5-0.5c-0.3-0.2-0.3-0.2-0.6-0.5c-0.3-0.2-0.3-0.2-0.6-0.4c-0.3-0.2-0.3-0.2-0.5-0.5
					c-0.3-0.2-0.2-0.4-0.5-0.6c-0.3-0.1-0.4,0-0.8,0s-0.4,0-0.7,0c-0.4,0-0.4-0.1-0.7-0.1s-0.4,0.1-0.7,0.1s-0.4,0-0.7,0
					c-0.4,0-0.4,0-0.7,0c-0.4,0-0.4-0.1-0.7-0.1c-0.4,0-0.4,0.1-0.7,0.1c-0.4,0-0.4-0.1-0.7-0.1c-0.4,0-0.4,0-0.7,0
					c-0.4,0-0.4,0.1-0.7,0.1c-0.4,0-0.4,0-0.7,0c-0.4,0-0.4,0.1-0.7,0.1c-0.4,0-0.4,0-0.7,0c-0.4,0-0.4,0-0.7,0c-0.4,0-0.4,0-0.7,0
					c-0.4,0-0.4-0.1-0.7-0.1c-0.4,0-0.4,0.1-0.7,0.1s-0.4-0.1-0.7-0.1c-0.4,0-0.4,0.1-0.7,0.1c-0.4,0-0.4,0-0.7,0s-0.4,0-0.7,0
					c-0.4,0-0.4,0-0.7,0s-0.4,0-0.7,0c-0.4,0-0.4,0-0.7,0c-0.4,0-0.4,0-0.7,0c-0.4,0-0.4,0.1-0.7,0.1c-0.4,0-0.4,0-0.7,0
					c-0.4,0-0.4,0-0.7,0s-0.4,0-0.7,0c-0.4,0-0.4,0-0.7,0c-0.4,0-0.4,0-0.7,0c-0.4,0-0.4,0-0.7,0c-0.4,0-0.4,0.1-0.7,0.1
					c-0.4,0-0.4,0-0.7,0c-0.4,0-0.4-0.1-0.7-0.1c-0.4,0-0.4,0-0.7,0c-0.4,0-0.4,0.1-0.7,0C3.4,50.5,3.3,50.4,3,50.5"/>
				<path class="st3" d="M37.5,55.7c-0.3-0.1-0.3-0.1-0.7-0.1c-0.4,0-0.4,0-0.7,0c-0.4,0-0.4,0-0.7,0c-0.4,0-0.4,0.1-0.7,0.1
					s-0.4,0-0.7,0s-0.4-0.1-0.7-0.1c-0.4,0-0.4,0-0.7,0c-0.4,0-0.4,0-0.7,0c-0.4,0-0.4,0.1-0.7,0.1c-0.4,0-0.4-0.1-0.7-0.1
					c-0.4,0-0.4,0-0.7,0c-0.4,0-0.4,0-0.7,0c-0.4,0-0.4,0-0.7,0c-0.4,0-0.4,0-0.7,0c-0.4,0-0.4,0.1-0.7,0.1c-0.4,0-0.4,0-0.7,0
					c-0.4,0-0.4,0-0.7,0c-0.4,0-0.4,0-0.7,0c-0.4,0-0.4-0.1-0.7-0.1s-0.4,0-0.7,0c-0.4,0-0.4,0.1-0.7,0.1c-0.4,0-0.4-0.1-0.7-0.1
					c-0.4,0-0.4,0-0.7,0c-0.4,0-0.4-0.1-0.7-0.1c-0.4,0-0.4,0-0.7,0c-0.4,0-0.4,0-0.7,0c-0.4,0-0.4,0-0.7,0c-0.4,0-0.4,0-0.7,0
					c-0.4,0-0.4,0-0.7,0c-0.4,0-0.4,0.1-0.7,0.1c-0.4,0-0.4,0-0.7,0c-0.4,0-0.4,0-0.7,0c-0.4,0-0.4-0.1-0.7-0.1c-0.4,0-0.4,0-0.7,0
					c-0.4,0-0.4,0-0.7,0c-0.4,0-0.4,0-0.7,0s-0.4,0-0.7,0.1c-0.3,0.1,0.1,0.2,0.3,0.6c0.1,0.2,0.3,0.4,0.4,0.6
					c0.1,0.2,0.3,0.3,0.5,0.5c0.1,0.2,0.2,0.4,0.4,0.6c0.2,0.2,0.4,0.3,0.6,0.4c0.2,0.1,0.4,0.3,0.6,0.4c0.2,0.1,0.4,0.2,0.6,0.3
					c0.2,0.1,0.4,0.3,0.6,0.4c0.2,0.1,0.5,0.1,0.7,0.1c0.2,0.1,0.4,0.1,0.7,0.2c0.2,0,0.5,0.1,0.7,0.1c0.2,0,0.5,0.1,0.7,0.1
					c0.1,0,0.3,0,0.7,0c0.2,0,0.4,0,0.7,0c0.2,0,0.5-0.1,0.7-0.1c0.2,0,0.5,0,0.7,0c0.2,0,0.5,0.1,0.7,0.1c0.2,0,0.5,0,0.7,0
					c0.2,0,0.5,0,0.7,0c0.2,0,0.5,0,0.7,0c0.2,0,0.5,0,0.7,0c0.2,0,0.5,0,0.7,0c0.2,0,0.5,0,0.7,0c0.2,0,0.5-0.1,0.7-0.1
					c0.1,0,0.3,0,0.7,0c0.2,0,0.4,0,0.7,0c0.2,0,0.5,0,0.7,0c0.2,0,0.5,0,0.7,0c0.2,0,0.5-0.1,0.7-0.1c0.2,0,0.5,0.1,0.7,0.1
					c0.2,0,0.5,0,0.7,0c0.2,0,0.5,0,0.7,0c0.2,0,0.5,0,0.7,0c0.2,0,0.5,0,0.7,0c0.2,0,0.5,0,0.7,0c0.2,0,0.5-0.1,0.7-0.1
					c0.2,0,0.5,0.1,0.7,0.1c0.2,0,0.5,0,0.7,0c0.2,0,0.5,0,0.7,0c0.2,0,0.5-0.1,0.7-0.1c0.2,0,0.5,0.1,0.7,0.1
					c0.2,0,0.5-0.1,0.7-0.1c0.2,0,0.5,0.1,0.7,0.1c0.2,0,0.5,0.1,0.7,0.1c0.2,0,0.5-0.1,0.7-0.1c0,0,0.3,0,0.6,0c0.2,0,0.4,0,0.6,0
					c0.2,0,0.5,0,0.7,0c-0.1-0.2-0.2-0.2-0.4-0.3c-0.3-0.2-0.3-0.3-0.6-0.5c-0.3-0.2-0.3-0.3-0.6-0.5c-0.3,0-0.7-0.1-1-0.3
					c-0.3-0.3-0.3-0.3-0.6-0.5c-0.3-0.3-0.3-0.2-0.6-0.5c-0.3-0.3-0.3-0.3-0.6-0.5c-0.3-0.3-0.3-0.2-0.6-0.5
					C37.8,55.9,37.8,55.8,37.5,55.7"/>
				<path class="st3" d="M18.1,60.8c-0.3,0.1,0.1,0.2,0.3,0.6c0.1,0.2,0.3,0.4,0.4,0.6c0.1,0.2,0.3,0.4,0.4,0.5
					c0.1,0.2,0.3,0.3,0.5,0.5c0.2,0.2,0.4,0.3,0.6,0.4c0.2,0.1,0.4,0.3,0.6,0.4c0.2,0.1,0.4,0.3,0.6,0.4c0.2,0.1,0.4,0.1,0.7,0.2
					c0.2,0.1,0.4,0.2,0.7,0.2c0.2,0.1,0.4,0.1,0.7,0.2c0.2,0,0.5,0.1,0.7,0.1c0.2,0,0.5,0,0.7,0c0.1,0,0.3,0,0.7,0
					c0.2,0,0.4,0,0.7,0c0.2,0,0.5,0,0.7,0c0.2,0,0.5,0,0.7,0c0.2,0,0.5-0.1,0.7-0.1c0.2,0,0.5,0,0.7,0c0.2,0,0.5,0,0.7,0
					c0.2,0,0.5,0,0.7,0c0.2,0,0.5-0.1,0.7-0.1c0.2,0,0.5,0,0.7,0c0.2,0,0.5,0,0.7,0c0.2,0,0.5,0.1,0.7,0.1c0.2,0,0.5-0.1,0.7-0.1
					c0.2,0,0.5,0,0.7,0c0.2,0,0.5,0,0.7,0c0.3,0,0.6,0.1,0.9,0.1c0.3,0,0.6,0,0.9,0c0.3-0.2,0.2-0.3,0.5-0.5
					c0.3-0.2,0.3-0.2,0.6-0.4c0.3-0.2,0.2-0.3,0.5-0.5c0.3-0.2,0.3-0.2,0.6-0.4c0.3-0.2,0.3-0.2,0.6-0.5c0.3-0.2,0.3-0.2,0.6-0.4
					c0.3-0.2,0.3-0.2,0.6-0.5c0.3-0.2,0.3-0.2,0.6-0.5c0.3-0.2,0.8-0.2,0.6-0.5c-0.3-0.4-0.5,0-0.9,0c-0.5,0-0.5,0.1-0.9,0.1
					c-0.4,0-0.4,0-0.7,0c-0.4,0-0.4,0-0.7,0c-0.4,0-0.4,0-0.7,0c-0.4,0-0.4,0-0.7,0c-0.4,0-0.4,0.1-0.7,0.1c-0.4,0-0.4,0-0.7,0
					c-0.4,0-0.4-0.1-0.7-0.1c-0.4,0-0.4,0.1-0.7,0.1c-0.4,0-0.4-0.1-0.7-0.1c-0.4,0-0.4,0-0.7,0c-0.4,0-0.4,0-0.7,0
					c-0.4,0-0.4,0-0.7,0c-0.4,0-0.4-0.1-0.7-0.1c-0.4,0-0.4,0-0.7,0c-0.4,0-0.4,0-0.7,0s-0.4,0.1-0.7,0.1c-0.4,0-0.4,0-0.7,0
					c-0.4,0-0.4,0-0.7,0c-0.4,0-0.4,0-0.7,0c-0.4,0-0.4,0-0.7,0c-0.4,0-0.4,0-0.7,0c-0.4,0-0.4,0-0.7,0c-0.4,0-0.4,0-0.7,0
					c-0.4,0-0.4,0-0.7,0c-0.4,0-0.4-0.1-0.7-0.1c-0.4,0-0.4,0.1-0.7,0.1c-0.4,0-0.4,0-0.7,0h-0.7c-0.4,0-0.4-0.1-0.7-0.1
					c-0.4,0-0.4,0.1-0.7,0.1C18.5,60.7,18.5,60.6,18.1,60.8"/>
				<path class="st3" d="M31.5,70c0.3-0.2,0.3-0.2,0.5-0.5c0.3-0.2,0.3-0.2,0.6-0.4c0.3-0.2,0.3-0.2,0.5-0.5
					c0.3-0.2,0.3-0.2,0.5-0.5c0.3-0.2,0.3-0.2,0.6-0.4c0.3-0.2,0.3-0.2,0.5-0.5C35,67,35,67,35.3,66.8c0.3-0.2,0.3-0.2,0.5-0.5
					c0.3-0.2,0.7-0.1,0.5-0.4c-0.1-0.3-0.3,0-0.7,0c-0.4,0-0.4,0-0.7,0c-0.4,0-0.4,0-0.7,0c-0.4,0-0.4,0-0.7,0c-0.4,0-0.4,0-0.7,0
					c-0.4,0-0.4,0-0.7,0c-0.4,0-0.4,0-0.7,0c-0.4,0-0.4,0-0.7,0c-0.4,0-0.4,0-0.7,0c-0.4,0-0.4,0-0.7,0c-0.4,0-0.4,0-0.7,0
					c-0.4,0-0.4,0-0.7,0c-0.4,0-0.4,0-0.7,0c-0.4,0-0.4,0-0.7,0c-0.4,0-0.4-0.2-0.7,0c-0.3,0.1,0.1,0.3,0.4,0.7
					c0.1,0.2,0.2,0.4,0.4,0.6c0.1,0.2,0.3,0.4,0.5,0.5c0.2,0.2,0.3,0.3,0.5,0.5c0.2,0.2,0.4,0.3,0.6,0.5c0.2,0.1,0.4,0.3,0.6,0.4
					c0.2,0.1,0.4,0.2,0.6,0.3c0.2,0.1,0.4,0.2,0.7,0.3c0.2,0.1,0.5,0.1,0.7,0.2C31,69.9,31.2,70,31.5,70"/>
				<polygon class="st3" points="32.8,70.9 32.2,70.9 31.7,71.4 31.2,71.8 30.6,72.2 30.1,72.7 29.6,73.1 29.1,73.6 28.6,74 
					28,74.4 27.9,75 28.3,75.6 28.8,76.1 29.2,76.7 29.7,77.2 30.2,77.7 30.6,78.3 31.3,78.3 31.8,77.8 32.3,77.4 32.8,77 
					33.3,76.5 33.8,76.1 34.4,75.7 34.9,75.2 35.5,74.8 35.5,74.2 35.1,73.6 34.6,73.1 34.2,72.6 33.7,72 33.3,71.4 				"/>
				<polygon class="st3" points="27.8,75.4 27.1,75.5 26.5,76 26,76.4 25.5,76.9 25,77.3 24.5,77.8 23.9,78.2 23.7,78.9 24.2,79.4 
					24.7,80 25.2,80.6 25.6,81.2 26.1,81.7 26.8,81.6 27.3,81.2 27.9,80.8 28.4,80.3 28.9,79.9 29.5,79.4 30,79 30.2,78.3 
					29.7,77.7 29.2,77.2 28.8,76.6 28.3,76 				"/>
				<polygon class="st3" points="34.7,70.9 34.3,71.5 34.5,72.3 35.2,72.7 35.9,72.4 36.4,71.9 37,71.4 37.5,70.9 38.1,70.5 
					38.7,70 39.2,69.5 39.8,69 40.4,68.6 40.9,68.1 41.5,67.7 42.1,67.2 42.6,66.7 43.2,66.3 43.8,65.8 44.3,65.3 44.9,64.8 
					45.4,64.4 46,63.9 46.6,63.4 47.1,62.9 46.7,62.5 46.1,62.1 45.6,61.7 45.1,62.1 44.5,62.6 44,63.1 43.4,63.5 42.9,64 
					42.4,64.5 41.8,64.9 41.3,65.4 40.7,65.8 40.2,66.3 39.6,66.8 39.1,67.2 38.5,67.7 38,68.2 37.4,68.6 36.9,69.1 36.3,69.5 
					35.8,70 35.2,70.4 				"/>
				<polygon class="st3" points="32.9,70.4 33,70.5 33.7,70.8 34.4,70.5 34.9,70.1 35.5,69.7 36,69.2 36.6,68.8 37.1,68.3 
					37.6,67.8 38.2,67.4 38.8,66.9 39.3,66.5 39.9,66 40.4,65.5 41,65.1 41.4,64.6 42,64.2 42.6,63.7 43.1,63.2 43.7,62.8 
					44.2,62.3 44.7,61.9 45.3,61.4 44.9,61 44.4,60.7 43.9,61.1 43.3,61.6 42.8,62.1 42.2,62.5 41.7,63 41.1,63.4 40.6,63.9 
					40,64.3 39.5,64.8 39,65.3 38.4,65.8 37.9,66.2 37.3,66.7 36.7,67.1 36.2,67.5 35.6,68 35.1,68.5 34.5,69 34,69.4 33.4,69.9 
									"/>
				<polygon class="st3" points="36.2,72.7 35.8,73.3 36,74.1 36.1,74.2 36.7,73.7 37.2,73.2 37.7,72.8 38.3,72.3 38.9,71.9 
					39.4,71.4 40,70.9 40.6,70.5 41.1,70 41.7,69.6 42.2,69.1 42.8,68.6 43.4,68.2 43.9,67.7 44.5,67.2 45,66.7 45.5,66.3 
					46.1,65.8 46.6,65.3 47.2,64.9 47.8,64.4 48.3,64 47.9,63.6 47.5,63.2 46.9,63.7 46.4,64.2 45.8,64.7 45.2,65.1 44.7,65.6 
					44.1,66.1 43.5,66.5 42.9,67 42.4,67.5 41.8,67.9 41.3,68.4 40.7,68.9 40.1,69.4 39.6,69.9 39,70.3 38.4,70.8 37.9,71.3 
					37.3,71.8 36.8,72.2 				"/>
				<polygon class="st3" points="73.9,37.9 74.3,38.5 74.8,39 75.2,39.5 75.7,38.9 76.2,38.3 76.7,37.7 77.1,37 77.6,36.4 
					78.1,35.8 77.4,36.1 76.7,36.5 76,36.9 75.3,37.2 74.6,37.6 				"/>
				<polygon class="st3" points="69.5,44.2 70,43.5 69.7,42.8 69,42.4 68.3,42.7 67.8,43.3 67.1,43.6 66.6,44.2 66.1,44.7 
					65.5,45.1 64.9,45.6 64.3,46 63.8,46.5 63.2,47 62.7,47.5 62.1,47.9 61.5,48.4 61,48.9 60.4,49.3 59.9,49.8 59.3,50.3 
					58.7,50.7 58.2,51.3 57.6,51.8 57.1,52.2 56.4,52.6 55.9,53.1 55.3,53.6 54.8,54.1 54.2,54.6 53.6,55 53,55.4 52.5,55.9 
					51.9,56.4 51.4,57 50.8,57.4 51.3,57.8 51.8,58.2 52.3,58.7 52.8,58.1 53.4,57.7 54,57.3 54.5,56.8 55,56.3 55.6,55.9 
					56.2,55.4 56.7,54.9 57.3,54.4 57.8,53.9 58.4,53.6 58.9,53 59.5,52.6 60.1,52.2 60.6,51.7 61.1,51.2 61.8,50.8 62.3,50.3 
					62.8,49.8 63.4,49.3 64,48.9 64.5,48.4 65.1,48 65.6,47.5 66.1,46.9 66.7,46.5 67.3,46.1 67.9,45.6 68.4,45.1 68.9,44.6 				"/>
				<polygon class="st3" points="68,42.4 68.4,41.7 68.3,40.9 68,41 67.4,41.4 66.9,41.9 66.3,42.4 65.7,42.8 65.2,43.3 64.6,43.7 
					64.1,44.2 63.5,44.6 63,45.2 62.4,45.6 61.9,46.1 61.3,46.5 60.8,47.1 60.2,47.4 59.6,47.9 59.1,48.4 58.6,48.9 58,49.4 
					57.5,49.9 56.8,50.2 56.3,50.7 55.7,51.2 55.2,51.7 54.7,52.2 54,52.6 53.5,53.1 52.9,53.5 52.4,54 51.8,54.4 51.3,55 
					50.7,55.5 50.1,55.9 49.6,56.4 50,56.7 50.5,57.2 51.1,56.7 51.6,56.1 52.2,55.7 52.7,55.2 53.3,54.8 53.9,54.3 54.4,53.8 
					55,53.3 55.6,52.9 56.2,52.4 56.7,51.9 57.2,51.4 57.8,51 58.4,50.5 58.9,50 59.5,49.5 60.1,49 60.6,48.5 61.2,48.1 61.8,47.7 
					62.3,47.1 62.9,46.7 63.5,46.2 64.1,45.8 64.6,45.2 65.2,44.8 65.7,44.3 66.3,43.8 66.9,43.3 67.5,42.9 				"/>
				<polygon class="st3" points="71.2,44.8 71.2,44.6 70.6,44.3 69.8,44.6 69.2,45 68.7,45.5 68.1,45.9 67.6,46.3 67.1,46.9 
					66.5,47.3 66,47.8 65.4,48.3 64.8,48.7 64.3,49.2 63.8,49.7 63.2,50.1 62.6,50.6 62.1,51 61.5,51.5 60.9,51.9 60.3,52.4 
					59.8,52.9 59.3,53.4 58.7,53.8 58.2,54.3 57.6,54.7 57.1,55.2 56.5,55.6 55.9,56.1 55.4,56.6 54.9,57.1 54.3,57.6 53.7,57.9 
					53.1,58.4 52.6,58.9 53.1,59.3 53.5,59.6 54,59.2 54.6,58.7 55.2,58.3 55.8,57.8 56.3,57.3 56.9,56.9 57.3,56.4 58,56 
					58.5,55.5 59,55 59.6,54.5 60.1,54 60.7,53.6 61.2,53.1 61.8,52.7 62.4,52.3 62.9,51.8 63.4,51.3 64,50.9 64.6,50.4 65.1,49.9 
					65.7,49.4 66.2,49 66.8,48.5 67.4,48.1 67.9,47.6 68.5,47.2 69,46.6 69.6,46.2 70.1,45.7 70.7,45.2 				"/>
				<polygon class="st3" points="68.7,40.7 68.9,41.2 69,41.7 68.9,41.9 69.6,42 70.1,42.4 70.1,42.4 70.5,43.1 70.4,43.8 
					71.1,43.8 71.6,44.2 72.1,43.6 72.6,43 73,42.4 73.5,41.7 74,41.1 74.4,40.5 74.9,39.9 74.4,39.3 74,38.7 73.5,38.2 72.8,38.5 
					72.1,38.9 71.4,39.2 70.7,39.6 70,39.9 69.4,40.3 				"/>
				<polygon class="st3" points="74.1,80.3 73.7,80.9 73.2,81.4 72.7,81.8 72.1,81.8 71.5,81.6 72,81 72.5,80.4 73,79.8 73.4,79.2 
					74,78.6 74.3,79.1 74.4,79.8 				"/>
				<polygon class="st3" points="37,49.3 37,49.3 36.4,49.2 35.8,49.1 35.8,49.1 35.8,49.2 36,49.8 36.2,50.3 36.2,50.4 36.2,50.4 
					36.8,50.5 37.4,50.6 37.5,50.6 37.4,50.5 37.2,49.9 37,49.4 				"/>
				<polygon class="st3" points="37.1,49.2 37.1,49.2 37.2,49.2 37.8,49.3 38.4,49.4 38.4,49.4 38.4,49.4 38.2,48.8 38,48.2 
					38,48.2 38,48.2 37.4,48.1 36.8,48 36.7,48 36.8,48.1 36.9,48.6 				"/>
				<polygon class="st3" points="34.3,48.8 34.3,48.8 34.9,48.9 35.5,49 35.6,49 35.5,48.9 35.3,48.3 35.1,47.8 35.1,47.7 
					35.1,47.7 34.5,47.6 33.9,47.5 33.8,47.5 33.9,47.6 34.1,48.2 34.3,48.7 				"/>
				<polygon class="st3" points="35.2,47.6 35.3,47.6 35.9,47.7 36.5,47.8 36.5,47.8 36.5,47.8 36.3,47.2 36.1,46.6 36.1,46.6 
					36.1,46.6 35.5,46.5 34.9,46.4 34.8,46.4 34.8,46.4 35,47 35.2,47.6 				"/>
				<polygon class="st3" points="35.3,47.8 35.3,47.8 35.5,48.4 35.7,49 35.7,49 35.7,49 36.3,49.1 36.9,49.2 37,49.2 37,49.1 
					36.8,48.6 36.6,48 36.6,48 36.6,48 36,47.9 35.4,47.8 				"/>
				<polygon class="st3" points="40.9,52.4 40.9,52.4 41,52.4 41.6,52.5 42.2,52.6 42.2,52.6 42.2,52.6 42,52 41.8,51.4 41.8,51.4 
					41.8,51.4 41.2,51.3 40.6,51.2 40.5,51.2 40.6,51.3 40.8,51.8 				"/>
				<polygon class="st3" points="34.2,48.9 34.2,48.9 34.1,48.9 33.5,48.8 32.9,48.7 32.9,48.7 32.9,48.7 33.1,49.3 33.3,49.9 
					33.3,49.9 33.3,49.9 33.9,50 34.5,50.1 34.6,50.1 34.6,50 34.4,49.5 				"/>
				<polygon class="st3" points="40.9,52.6 40.8,52.6 40.2,52.5 39.6,52.4 39.6,52.4 39.6,52.4 39.8,53 40,53.6 40,53.6 40,53.6 
					40.6,53.7 41.2,53.8 41.3,53.8 41.2,53.7 41.1,53.2 40.9,52.6 				"/>
				<polygon class="st3" points="41,52.6 41,52.6 41.2,53.2 41.4,53.8 41.4,53.8 41.4,53.8 42,53.9 42.6,54 42.7,54 42.7,54 
					42.5,53.4 42.3,52.8 42.3,52.8 42.3,52.8 41.7,52.7 41.1,52.6 				"/>
				<polygon class="st3" points="39.1,51 39.1,51 39.3,51.6 39.5,52.2 39.5,52.2 39.5,52.2 40.1,52.3 40.7,52.4 40.8,52.4 
					40.8,52.4 40.6,51.8 40.4,51.2 40.4,51.2 40.4,51.2 39.8,51.1 39.2,51 				"/>
				<polygon class="st3" points="38.9,51 38.9,50.9 38.3,50.8 37.7,50.8 37.7,50.7 37.7,50.8 37.9,51.4 38.1,52 38.1,52 38.1,52 
					38.7,52.1 39.3,52.2 39.4,52.2 39.3,52.1 39.1,51.5 39,51 				"/>
				<polygon class="st3" points="39,50.8 39.1,50.8 39.1,50.8 39.7,50.9 40.3,51 40.3,51 40.3,51 40.1,50.4 39.9,49.8 39.9,49.8 
					39.9,49.8 39.3,49.7 38.7,49.6 38.6,49.6 38.7,49.7 38.8,50.2 				"/>
				<polygon class="st3" points="37.2,49.4 37.2,49.4 37.4,50 37.6,50.6 37.6,50.6 37.6,50.6 38.2,50.7 38.8,50.8 38.9,50.8 
					38.9,50.7 38.7,50.2 38.5,49.6 38.5,49.6 38.5,49.6 37.9,49.5 37.3,49.4 				"/>
				<polygon class="st3" points="41.7,55.2 41.7,55.1 41.5,54.5 41.3,54 41.3,53.9 41.3,53.9 40.7,53.8 40.1,53.7 40,53.7 
					40.1,53.8 40.3,54.4 40.4,54.9 40.5,55 40.5,55 41.1,55.1 41.7,55.2 				"/>
				<polygon class="st3" points="41.8,55.3 41.8,55.3 41.2,55.2 40.6,55.1 40.5,55.1 40.5,55.2 40.7,55.7 40.9,56.3 40.9,56.3 
					40.9,56.3 41.5,56.4 42.1,56.5 42.2,56.5 42.2,56.5 42,55.9 41.8,55.3 				"/>
				<polygon class="st3" points="42.8,54.2 42.7,54.2 42.1,54.1 41.5,54 41.5,54 41.5,54 41.7,54.6 41.9,55.2 41.9,55.2 41.9,55.2 
					42.5,55.3 43.1,55.4 43.2,55.4 43.2,55.3 43,54.8 42.8,54.2 				"/>
				<path class="st3" d="M44.9,53.3l-0.5-0.5l-0.6-0.4l-0.5-0.5l-0.5-0.5L42.2,51l-0.6-0.4l-0.5-0.5l-0.6-0.4L40,49.1l-0.6-0.4
					l-0.6-0.5l-0.5-0.5l-0.6-0.4l-0.6-0.4l-0.5-0.5l-0.5-0.5l-0.6-0.4l-0.9,0.1l-0.4,0.6l-0.4,0.5l-0.5,0.5l-0.5,0.5l-0.4,0.6
					l-0.4,0.5l0.1,0.9l0.6,0.4l0.5,0.5l0.5,0.5l0.5,0.5l0.6,0.5l0.6,0.5l0.5,0.5l0.5,0.5l0.6,0.4l0.5,0.5l0.6,0.4l0.5,0.5l0.6,0.4
					l0.5,0.5l0.6,0.4l0.5,0.5l0.6,0.4l0.9,0l0.4-0.5l0.4-0.6l0.4-0.5l0.5-0.5l0.5-0.5l0.4-0.6L44.9,53.3z M44.7,54.5l-0.3-0.1
					l-0.1,0.1l0,0.1l0.1,0.3l-0.1,0.1l-0.2-0.4l0.1-0.1l-0.1,0.1l-0.6-0.2L43,54.2l-0.1,0l0,0.1l0.3,0.5l0.2,0.6l-0.1,0.1l0,0l0.5,0
					l-0.1,0.1l-0.3,0l0,0l0,0.1l0.1,0.3L43.4,56l-0.2-0.5l0,0l0,0l-0.6-0.1L42,55.4l0,0l0,0l0.2,0.6l0.2,0.6l0,0.1l0,0l0.5,0.1
					l-0.1,0.1l-0.3-0.1l-0.1,0l0,0.1l0.1,0.3l-0.1,0.1l-0.2-0.4l0,0l0,0l-0.6,0L41,56.5l0,0l0,0.1l0.3,0.7L41,57.1l-0.2-0.6l0,0
					l0-0.1l-0.6,0L40,56.2l0.7,0.2l0.1,0l0-0.1l-0.2-0.6l-0.1-0.6l-0.1,0l0-0.1l-0.6-0.1l-0.6-0.1l-0.1,0l0,0.1l0.3,0.7l-0.2-0.2
					L39,54.9l0,0l-0.1,0.1l-0.6-0.2l-0.2-0.2l0.7,0.2l0.1,0l0-0.1l-0.3-0.5l-0.2-0.6l0.1-0.1l0,0l-0.6-0.1l-0.6-0.1l0,0l0,0l0.2,0.7
					l-0.2-0.2L37,53.3l0,0l0,0l-0.6-0.2L36.2,53l0.7,0.1l0.1,0l0-0.1l-0.2-0.6l-0.2-0.6l0.1-0.1l-0.1,0.1l-0.6-0.1l-0.6-0.1
					l-0.1-0.1l0.1,0.1l0.2,0.7l-0.2-0.2l-0.2-0.6l0,0l0,0l-0.6-0.1l-0.2-0.2l0.7,0.2l0.1,0L35,51.4l-0.2-0.6l-0.2-0.6l0,0l0,0
					L34,50.2L33.4,50l-0.1,0l0,0.1l0.3,0.7l-0.2-0.2l-0.2-0.6l0,0l0-0.1l-0.6,0l-0.2-0.3l0.7,0.2l0.1,0l-0.1-0.1L33,49.2l-0.2-0.6
					l0,0l0,0l-0.4-0.2l0.1-0.1l0.3,0.1l0,0l0,0l0-0.3l0.1-0.1l0.2,0.4l0,0.1l0.1-0.1l0.6,0.1l0.6,0l0.1,0.1l0-0.1l-0.2-0.6l-0.2-0.6
					l0,0l0,0l-0.5-0.1l0.1-0.1l0.3,0l0.1,0.1l0-0.1L33.5,47l0.1-0.1l0.2,0.5l0,0.1l0-0.1l0.6,0.1l0.6,0.2l0-0.1l0,0l-0.2-0.6
					l-0.2-0.6l0,0l0-0.1l-0.5,0l0.1-0.1l0.3,0.1l0,0l0,0l-0.1-0.3l0.1-0.1l0.1,0.4l0.1,0l0,0l0.6,0.1l0.6,0.1l0.1,0L36,46.4
					l-0.2-0.7l0.2,0.2l0.1,0.6l0,0l0,0l0.6,0.1l0.2,0.2l-0.7-0.1l-0.1-0.1l0.1,0.1l0.2,0.6l0.1,0.6l0,0l0,0l0.6,0.1l0.6,0l0.1,0.1
					l0-0.1l-0.2-0.7l0.2,0.2l0.2,0.6l0,0l0,0l0.6,0.1l0.2,0.2l-0.7-0.2l-0.1,0l0.1,0.1l0.1,0.6l0.2,0.6l0,0l0,0l0.6,0.2l0.6,0.1
					l0.1,0l0-0.1l-0.2-0.7l0.2,0.2l0.2,0.6l0,0l0,0l0.6,0.1l0.2,0.2l-0.7-0.2l-0.1,0l0.1,0.1l0.2,0.6l0.2,0.6l0,0.1l0,0l0.6,0.1
					l0.6,0l0,0.1l0,0l-0.2-0.7l0.2,0.2l0.2,0.6l0,0l0,0l0.6,0.1l0.2,0.1L42,51.4l-0.1,0l0.1,0.1l0.1,0.6l0.2,0.6l0,0l0,0l0.6,0.2
					l0.6,0l0.1,0.1l-0.1-0.1l-0.3-0.7l0.2,0.2l0.2,0.6l0.1,0l0,0l0.6,0.2l0.2,0.1l-0.7-0.1l-0.1,0l0,0.1l0.2,0.6l0.1,0.6l0.1,0
					l0,0.1l0.5,0.1L44.7,54.5z"/>
				<polygon class="st3" points="43.7,53 43.7,53 43.7,53 43.1,52.9 42.5,52.8 42.4,52.8 42.5,52.9 42.7,53.5 42.8,54 42.9,54 
					42.9,54.1 43.5,54.2 44.1,54.2 44.1,54.3 44.1,54.2 43.9,53.6 				"/>
				<polygon class="st3" points="36.1,50.5 36.1,50.5 36,50.5 35.4,50.4 34.9,50.3 34.8,50.3 34.8,50.3 35,50.9 35.2,51.5 
					35.2,51.5 35.2,51.5 35.8,51.6 36.4,51.7 36.5,51.7 36.5,51.7 36.3,51.1 				"/>
				<polygon class="st3" points="37.9,51.9 37.9,51.9 37.7,51.3 37.5,50.7 37.5,50.7 37.5,50.7 36.9,50.6 36.3,50.5 36.2,50.5 
					36.2,50.6 36.4,51.1 36.6,51.7 36.6,51.7 36.7,51.8 37.3,51.8 37.9,51.9 				"/>
				<polygon class="st3" points="39.9,53.7 39.9,53.7 39.9,53.7 39.3,53.6 38.7,53.5 38.6,53.5 38.6,53.6 38.8,54.1 39,54.7 
					39,54.7 39,54.7 39.6,54.8 40.2,54.9 40.3,54.9 40.3,54.9 40.1,54.3 				"/>
				<polygon class="st3" points="36,50.3 36,50.3 35.8,49.7 35.6,49.1 35.6,49.1 35.6,49.1 35,49 34.4,48.9 34.3,48.9 34.3,49 
					34.5,49.5 34.7,50.1 34.7,50.1 34.8,50.1 35.4,50.2 36,50.3 				"/>
				<polygon class="st3" points="38,52.1 38,52.1 38,52.1 37.4,52 36.8,51.9 36.7,51.9 36.7,52 36.9,52.5 37.1,53.1 37.1,53.1 
					37.1,53.1 37.7,53.2 38.3,53.3 38.4,53.3 38.4,53.3 38.2,52.7 				"/>
				<polygon class="st3" points="39.8,53.6 39.8,53.5 39.6,52.9 39.4,52.4 39.4,52.3 39.4,52.3 38.8,52.2 38.2,52.1 38.1,52.1 
					38.2,52.2 38.3,52.8 38.5,53.3 38.5,53.4 38.6,53.4 39.2,53.5 39.8,53.5 				"/>
				<polygon class="st3" points="28.5,45.1 29,44.5 29.5,43.9 30,43.3 30.5,42.8 29.9,42.2 29.4,41.8 28.8,41.3 28.3,40.8 
					27.7,40.3 27.1,39.9 26.6,39.4 26,38.9 25.5,38.4 24.9,37.9 24.3,37.4 23.8,37 23.2,36.5 22.7,36 22.2,35.4 21.6,35 21.9,35.6 
					22.1,36.3 22.5,37 22.7,37.7 23,38.3 23.3,39 23.6,39.7 24,40.3 24.2,41 24.5,41.7 25.1,42.2 25.7,42.6 26.3,43.1 26.8,43.6 
					27.4,44.1 27.9,44.6 				"/>
				<polygon class="st3" points="31,48.2 31.9,48.2 32.3,47.6 32.8,47.1 33.2,46.6 33.7,46.1 34.1,45.5 34,44.6 33.5,44.2 33,43.7 
					32.4,43.3 31.9,42.8 31,42.9 30.5,43.4 30.1,43.9 29.7,44.5 29.2,45 28.8,45.5 28.8,46.5 29.4,46.9 29.9,47.4 30.4,47.8 				"/>
				<polygon class="st3" points="70.3,81.3 71.3,81.1 71.8,80.6 72.2,80.1 72.7,79.7 73.1,79.1 73.6,78.6 73.4,77.7 72.9,77.2 
					72.3,76.7 71.8,76.2 71.3,75.7 70.6,75.3 70.1,74.8 69.6,74.2 69,73.8 68.4,73.4 67.9,72.9 67.3,72.5 66.7,72.1 66.2,71.6 
					65.7,71 65,70.7 64.5,70.2 64,69.7 63.4,69.3 62.9,68.8 62.3,68.3 61.7,67.8 61.2,67.3 60.6,66.9 60.1,66.3 59.6,65.8 
					58.9,65.6 58.4,65 57.9,64.5 57.3,64.1 56.7,63.6 56.2,63.1 55.6,62.7 55.1,62.1 54.4,61.8 54,61.2 53.3,60.8 52.8,60.3 
					52.3,59.8 51.6,59.4 51.1,59 50.6,58.5 50,57.9 49.4,57.6 49,56.9 48.4,56.5 47.7,56.2 47.2,55.7 46.6,55.2 46.1,54.7 
					45.2,54.8 44.7,55.2 44.2,55.8 43.8,56.4 43.4,56.9 43,57.4 43.1,58.3 43.5,58.9 44.2,59.2 44.8,59.7 45.3,60.2 45.9,60.6 
					46.4,61.2 46.9,61.7 47.6,62 48,62.6 48.5,63.1 49.2,63.4 49.8,63.9 50.4,64.3 50.8,64.9 51.5,65.3 52,65.7 52.5,66.3 
					53.1,66.7 53.7,67.1 54.1,67.8 54.8,68.1 55.2,68.7 55.8,69.1 56.5,69.5 57,70 57.6,70.4 58.1,71 58.7,71.4 59.2,71.9 
					59.7,72.4 60.4,72.8 60.9,73.3 61.4,73.8 62,74.2 62.6,74.7 63.1,75.2 63.7,75.6 64.2,76.1 64.8,76.5 65.4,77 65.9,77.5 
					66.5,77.9 67.1,78.4 67.6,78.9 68.1,79.4 68.7,79.9 69.3,80.3 69.9,80.7 				"/>
				<path class="st3" d="M46.2,46C46.2,46,46.2,46.1,46.2,46c0,0.4,0,0.4,0,0.7s0.1,0.3,0.1,0.6c0,0.1,0,0.1,0.1,0.1
					c0.3,0,0.3,0,0.7,0c0,0,0.1,0,0.1,0c0,0,0,0.1,0,0.1c0,0.2,0,0.2,0,0.3c0,0.1,0,0-0.1,0c-0.3,0-0.3,0.1-0.7,0.1
					c-0.1,0-0.1,0-0.1,0.1c0,0.3,0,0.3,0,0.7c0,0.3,0,0.3,0,0.7c0,0.1,0,0.1,0.1,0.1c0.3,0,0.3,0,0.6,0c0,0,0.1,0,0.1-0.1
					c0-0.1,0-0.1,0.1-0.1c0,0,0.1-0.1,0.2-0.1c0.1,0,0.2-0.1,0.2,0c0.1,0.3,0,0.3,0,0.6c0,0,0,0.1-0.1,0.1c0,0-0.1,0-0.1,0
					c-0.2,0-0.2,0-0.4,0c-0.3,0-0.3,0-0.6,0c-0.3,0-0.3,0-0.6,0c-0.2,0-0.2,0.1-0.3,0c-0.1,0,0-0.1,0-0.2c0-0.1,0-0.1,0.1-0.2
					c0,0,0.1-0.1,0.1-0.1c0,0,0-0.1,0-0.1c0-0.4,0-0.4,0-0.8c0-0.4,0-0.4,0-0.8c0-0.4,0-0.4,0-0.8c0-0.4,0-0.4,0-0.8
					c0,0,0-0.1,0-0.1c0,0,0,0-0.1,0c0,0-0.1-0.1-0.1-0.1c0,0,0-0.1,0-0.2c0-0.1-0.1-0.1,0-0.2c0.4-0.1,0.4,0,0.9,0
					c0.4,0,0.4,0,0.9,0c0,0,0.1,0,0.1,0c0,0,0,0.1,0,0.1c0,0.3,0.1,0.3,0,0.6c0,0.1-0.1,0-0.2,0c-0.1,0-0.1,0-0.2,0
					c-0.1,0-0.1-0.1-0.1-0.2c0,0,0,0,0-0.1c0,0,0-0.1-0.1-0.1C46.5,46,46.5,46,46.2,46C46.2,46,46.2,46,46.2,46"/>
				<path class="st3" d="M48.8,46.8c0,0.1,0.1,0.1,0.1,0.2c0.1,0.1,0.2,0.1,0.3,0.2c0.1,0.1,0.2,0.1,0.4,0.2
					c0.1,0.1,0.2,0.2,0.3,0.3c0.1,0.1,0.2,0.2,0.3,0.3c0.1,0.1,0.1,0.3,0.1,0.4c0,0.3,0,0.3,0,0.6c0,0.1,0,0.3-0.1,0.4
					c-0.1,0.1-0.2,0.2-0.3,0.2c-0.1,0.1-0.2,0.1-0.3,0.2c-0.1,0-0.3,0-0.4,0c-0.1,0-0.3,0-0.4,0c-0.1,0-0.2-0.1-0.3-0.1
					c-0.1-0.1-0.2-0.2-0.2-0.3c-0.1-0.1,0-0.2,0-0.4c0-0.2-0.1-0.3,0-0.4c0.1-0.1,0.2,0,0.3,0c0.1,0,0.2,0,0.3,0
					c0,0,0.1,0.1,0.1,0.2c0,0.1,0,0.1,0,0.2c0,0,0,0.1,0,0.1c0,0,0.1,0,0.1,0.1c0,0,0.1,0.1,0.1,0.1c0.1,0,0.1,0,0.2,0
					c0,0,0.1,0,0.2,0c0.1,0,0.1-0.1,0.1-0.1c0.1,0,0.1-0.1,0.1-0.1c0,0,0-0.1,0-0.1c0-0.3,0-0.3,0-0.6c0-0.1,0-0.2-0.1-0.3
					c-0.1-0.1-0.2-0.2-0.3-0.2c-0.1-0.1-0.2-0.2-0.3-0.3c-0.1-0.1-0.3-0.1-0.4-0.2c-0.1-0.1-0.1-0.2-0.2-0.3
					c-0.1-0.1-0.1-0.2-0.1-0.4c0-0.2,0-0.2,0-0.4c0-0.2,0-0.3,0.1-0.4c0-0.1,0.2-0.2,0.2-0.2c0.1-0.1,0.2-0.1,0.3-0.1
					c0.1,0,0.2,0,0.4,0c0.1,0,0.3,0,0.4,0c0.1,0,0.2,0.1,0.3,0.2c0.1,0.1,0.2,0.1,0.2,0.2c0.1,0.1,0.1,0.2,0.1,0.4
					c0,0.2,0.1,0.2,0,0.4c-0.1,0.1-0.1,0-0.2,0c-0.1,0-0.2,0-0.2-0.1c-0.1-0.1-0.1-0.1-0.1-0.2c0-0.1-0.1-0.1-0.1-0.2
					c0,0,0-0.1-0.1-0.1c0,0,0-0.1-0.1-0.1c0,0-0.1,0-0.1,0c-0.1,0-0.1-0.1-0.1-0.1c0,0-0.1,0-0.1,0c0,0-0.1,0-0.1,0
					c0,0-0.1,0.1-0.1,0.1c0,0,0,0.1,0,0.1C48.8,46.5,48.8,46.5,48.8,46.8"/>
				<path class="st3" d="M53.4,45.5c0,0,0,0.1,0,0.2c0,0.1,0,0.1,0,0.2c0,0.2,0.1,0.2,0,0.3c-0.1,0.1-0.2,0-0.3,0
					c-0.1,0-0.1,0-0.1-0.1c0,0,0-0.1,0-0.1c0,0,0,0-0.1,0c-0.1,0-0.1,0-0.3,0c0,0,0,0,0,0c0,0,0,0,0,0.1c0,0.4,0,0.4,0,0.8
					c0,0.4,0,0.4,0,0.8c0,0.4,0,0.4,0,0.8c0,0.4,0,0.4,0,0.8c0,0,0,0.1,0,0.1c0,0,0,0.1,0,0.1c0,0,0.1,0,0.1,0.1
					c0,0,0.1,0.1,0.1,0.2c0,0.1,0.1,0.2,0,0.2c-0.5,0.1-0.5,0-0.9,0c-0.1,0,0-0.1,0-0.1c0-0.1,0-0.1,0-0.2c0,0,0-0.1,0.1-0.1
					c0,0,0.1,0,0.1,0c0,0,0-0.1,0-0.1c0-0.4,0-0.4,0-0.8c0-0.4,0-0.4,0-0.8c0-0.4,0-0.4,0-0.8c0-0.4,0-0.4,0-0.8c0,0,0,0,0-0.1
					c0,0,0,0-0.1,0c-0.1,0-0.1,0-0.2,0c0,0,0,0-0.1,0c0,0,0,0.1,0,0.1c0,0.1,0,0.1-0.1,0.1c0,0-0.1,0-0.2,0c-0.1,0-0.2,0.1-0.3,0
					c-0.1-0.1,0-0.2,0-0.4c0-0.1,0-0.1,0-0.2c0-0.1,0-0.1,0.1-0.2c0,0,0.1-0.1,0.2-0.1c0.3,0,0.3,0,0.6,0c0.3,0,0.3,0,0.6,0
					c0.3,0,0.3,0,0.6,0C53.3,45.5,53.4,45.5,53.4,45.5"/>
				<path class="st3" d="M54.4,49.3c0,0.2,0,0.2,0,0.4c0,0,0,0.1-0.1,0.1c-0.1,0-0.1,0-0.2,0c-0.1,0-0.2,0-0.2,0
					c-0.1,0-0.1,0-0.1-0.1c0,0,0,0,0,0c0-0.2,0-0.2,0-0.3c0,0,0-0.1,0.1-0.1c0.1,0,0.1,0,0.2,0C54.2,49.2,54.2,49.2,54.4,49.3
					C54.4,49.3,54.4,49.3,54.4,49.3"/>
			</g>
		</g>
	</g>
</g>
</svg>
