<?xml version="1.0" encoding="utf-8"?>
<!-- Generator: Adobe Illustrator 21.0.0, SVG Export Plug-In . SVG Version: 6.00 Build 0)  -->
<svg version="1.1" id="Ebene_1" xmlns="http://www.w3.org/2000/svg" xmlns:xlink="http://www.w3.org/1999/xlink" x="0px" y="0px"
	 viewBox="0 0 71 71" style="enable-background:new 0 0 71 71;" xml:space="preserve">
<style type="text/css">
	.st0{fill:#51BCBE;}
</style>
<g>
	<path class="st0" d="M47.7,28.2c-0.3,0-0.7,0-1,0.1v12.9c0.3,0.1,0.6,0.1,1,0.1c3.7,0,4.9-5.2,5.2-6.8c0.3-2,0.1-3.5-0.8-4.6
		C51.2,28.8,49.6,28.2,47.7,28.2z"/>
	<path class="st0" d="M35.5,0.5c-19.3,0-35,15.7-35,35s15.7,35,35,35s35-15.7,35-35S54.8,0.5,35.5,0.5z M55.9,35
		c-1,5.8-4.1,9.3-8.1,9.3c-0.3,0-0.7,0-1-0.1v2.6c0,1.8-1.5,3.3-3.3,3.3H24.8c-1.8,0-3.3-1.5-3.3-3.3V24.1c0-1.8,1.5-3.3,3.3-3.3
		h18.6c1.8,0,3.3,1.5,3.3,3.3v1.1c0.3,0,0.6-0.1,1-0.1c2.7,0,5.1,1,6.6,2.8C55.4,29.2,56.5,31.4,55.9,35z"/>
</g>
</svg>
