<?xml version="1.0" encoding="utf-8"?>
<!-- Generator: Adobe Illustrator 25.2.3, SVG Export Plug-In . SVG Version: 6.00 Build 0)  -->
<svg version="1.1" id="Ebene_1" xmlns="http://www.w3.org/2000/svg" xmlns:xlink="http://www.w3.org/1999/xlink" x="0px" y="0px"
	 viewBox="0 0 71 71" style="enable-background:new 0 0 71 71;" xml:space="preserve">
<style type="text/css">
	.st0{fill:#51BCBE;}
	.st1{display:none;}
	.st2{display:inline;fill:#51BCBE;}
</style>
<path class="st0" d="M35.5,0.5c-19.3,0-35,15.7-35,35s15.7,35,35,35s35-15.7,35-35S54.8,0.5,35.5,0.5z M23.9,32.5l-11.2,4l11.2,4v4
	l-16.3-6v-3.9l16.3-6V32.5z M31,54.1h-4.8L40,18.9h4.8L31,54.1z M47.1,44.5v-4l11.2-4l-11.2-4v-4l16.3,6v3.9L47.1,44.5z"/>
<g id="webdesign_1_" class="st1">
	<path class="st2" d="M35.5,0.5c-19.3,0-35,15.7-35,35s15.7,35,35,35s35-15.7,35-35S54.8,0.5,35.5,0.5z M28.3,30.6l-13.8,4.9
		l13.8,4.9v4.9L8.2,37.9v-4.8l20.1-7.4V30.6z M42.7,45.3v-4.9l13.8-4.9l-13.8-4.9v-4.9l20.1,7.4v4.8L42.7,45.3z"/>
</g>
</svg>
