<?xml version="1.0" encoding="utf-8"?>
<!-- Generator: Adobe Illustrator 21.0.0, SVG Export Plug-In . SVG Version: 6.00 Build 0)  -->
<svg version="1.1" id="Ebene_1" xmlns="http://www.w3.org/2000/svg" xmlns:xlink="http://www.w3.org/1999/xlink" x="0px" y="0px"
	 viewBox="0 0 71 71" style="enable-background:new 0 0 71 71;" xml:space="preserve">
<style type="text/css">
	.st0{fill:#51BCBE;}
</style>
<g id="textile">
	<g>
		<g>
			<path class="st0" d="M35.5,0.5c-19.3,0-35,15.7-35,35s15.7,35,35,35s35-15.7,35-35S54.8,0.5,35.5,0.5z M53.1,30.7l-4-1.5v26.1
				c0,0.5-0.4,1-1,1H43H28h-5.1c-0.5,0-1-0.4-1-1V29.2l-4,1.5c-0.5,0.2-1,0-1.2-0.5l-4-8.3c-0.2-0.5,0-1.1,0.5-1.3L27,14.5l0,0h1h15
				h1.5l0,0l13.3,6.1c0.5,0.2,0.7,0.8,0.5,1.3l-4,8.3C54.1,30.7,53.6,30.9,53.1,30.7z"/>
		</g>
	</g>
</g>
</svg>
