<?xml version="1.0" encoding="utf-8"?>
<!-- Generator: Adobe Illustrator 21.0.0, SVG Export Plug-In . SVG Version: 6.00 Build 0)  -->
<svg version="1.1" id="Ebene_1" xmlns="http://www.w3.org/2000/svg" xmlns:xlink="http://www.w3.org/1999/xlink" x="0px" y="0px"
	 viewBox="0 0 71 71" style="enable-background:new 0 0 71 71;" xml:space="preserve">
<style type="text/css">
	.st0{fill:#51BCBE;}
</style>
<g>
	<path class="st0" d="M35.5,0.5c-19.3,0-35,15.7-35,35s15.7,35,35,35s35-15.7,35-35S54.8,0.5,35.5,0.5z M59.6,50.4H11.4
		c-0.5,0-1-0.5-1-1V21.6c0-0.5,0.5-1,1-1h48.3c0.5,0,1,0.5,1,1v27.7C60.6,49.9,60.2,50.4,59.6,50.4z"/>
	<circle class="st0" cx="12.9" cy="23.2" r="1.2"/>
	<circle class="st0" cx="12.9" cy="47.8" r="1.2"/>
	<circle class="st0" cx="58.1" cy="23.2" r="1.2"/>
	<circle class="st0" cx="58.1" cy="47.8" r="1.2"/>
</g>
</svg>
