<?xml version="1.0" encoding="utf-8"?>
<!-- Generator: Adobe Illustrator 21.0.0, SVG Export Plug-In . SVG Version: 6.00 Build 0)  -->
<svg version="1.1" id="embroidery" xmlns="http://www.w3.org/2000/svg" xmlns:xlink="http://www.w3.org/1999/xlink" x="0px" y="0px"
	 viewBox="0 0 71 71" style="enable-background:new 0 0 71 71;" xml:space="preserve">
<style type="text/css">
	.st0{fill:#51BCBE;}
</style>
<g>
	<g>
		<path class="st0" d="M36.1,22.3v4.2c-0.8,0.3-1.5,0.6-2.3,1v3.5c0,1.1,0.9,2,2,2c1.1,0,2-0.9,2-2V18.7c0-1.1-0.9-2-2-2
			c-1.1,0-2,0.9-2,2v4.7c0.6-0.3,1.2-0.5,1.8-0.8C35.8,22.5,36,22.4,36.1,22.3z"/>
	</g>
	<g>
		<path class="st0" d="M35.5,0.5c-19.3,0-35,15.7-35,35s15.7,35,35,35s35-15.7,35-35S54.8,0.5,35.5,0.5z M39.9,18.3l-0.7,26.1
			c-0.3,6.8-1.7,16.1-3.1,16.1c-0.1,0-0.2,0-0.2-0.1c-0.1,0-0.2,0.1-0.2,0.1c-1.4,0-2.9-9.3-3.1-16.1l-0.4-16.2
			c-2.6,1-5.3,1.7-8.2,1.7c-0.1,0-0.3,0-0.4,0c-2.5,0-5.4-0.6-7.9-1.6c-3.4-1.4-6.3-3.7-8.2-6.5c-0.6-0.9-0.4-2.1,0.5-2.7
			c0.9-0.6,2.1-0.4,2.7,0.5c3.5,5.3,10,6.5,13.2,6.4c2.8-0.1,5.5-0.9,8.2-2l-0.2-5.8c0-0.1,0-0.3,0-0.4c0-2.2,1.8-3.8,4.1-3.8
			c2.2,0,4.1,1.5,4.1,3.8C40,18,39.9,18.2,39.9,18.3z M60.6,28c-2.7-3.2-8.1-5.5-11.1-5.5c-2.8,0-5.5,0.6-8.1,1.6v-4
			c2.6-0.8,5.3-1.4,8.2-1.4c4,0.1,10.4,2.7,14,6.9c0.7,0.8,0.6,2-0.2,2.7C62.5,28.9,61.3,28.8,60.6,28z"/>
	</g>
</g>
</svg>
