<?xml version="1.0" encoding="utf-8"?>
<!-- Generator: Adobe Illustrator 21.0.0, SVG Export Plug-In . SVG Version: 6.00 Build 0)  -->
<svg version="1.1" id="Ebene_2" xmlns="http://www.w3.org/2000/svg" xmlns:xlink="http://www.w3.org/1999/xlink" x="0px" y="0px"
	 viewBox="0 0 71 71" style="enable-background:new 0 0 71 71;" xml:space="preserve">
<style type="text/css">
	.st0{fill:#51BCBE;}
</style>
<g id="lfp">
	<g>
		<g>
			<path class="st0" d="M35.5,0.5c-19.3,0-35,15.7-35,35s15.7,35,35,35s35-15.7,35-35S54.8,0.5,35.5,0.5z M35.5,55.4
				c-7,0-12.7-5.7-12.7-12.7c0-0.1,0-0.2,0-0.3v-0.1c0-6.1,2.2-9.4,4.6-12.9c1-1.4,2-2.9,2.9-4.7c2.4-4.6,4-11.6,4-11.7
				c0.1-0.5,0.5-0.8,1-0.8l0,0l0,0l0,0l0,0c0.5,0,0.9,0.3,1,0.8c0,0.1,1.7,7.1,4,11.7c0.9,1.8,1.9,3.3,2.9,4.7
				c2.1,3.2,4.2,6.2,4.5,11.3c0.1,0.6,0.2,1.3,0.2,2C48.2,49.7,42.5,55.4,35.5,55.4z"/>
		</g>
		<g>
			<path class="st0" d="M40,34.1c-0.4-0.7-0.8-1.4-1.2-2.1c-0.2-0.4-0.4-0.9-0.6-1.4c0-0.1-0.1-0.2-0.2-0.2c0,0.1-0.1,0.2-0.1,0.3
				c0,0.3,0.1,0.5,0.1,0.8c0,1.4-0.1,2.7-0.3,4.1c-0.1,0.5-0.2,0.9-0.2,1.4c0,0.4,0.1,0.8,0.1,1.2c0.1,1.1,0.6,2,1.4,2.8
				c0.3,0.3,0.7,0.5,1.2,0.5s0.8-0.1,1.2-0.5c0.6-0.6,0.8-1.4,0.8-2.2c0-1.2-0.5-2.4-1.2-3.4C40.6,34.9,40.3,34.5,40,34.1z"/>
		</g>
	</g>
</g>
</svg>
